<svg width="48" height="48" viewBox="0 0 48 48" fill="none" xmlns="http://www.w3.org/2000/svg">
<path d="M26.6918 22.1665L26.9118 21.8865C26.8565 21.9277 26.796 21.9614 26.7318 21.9865C26.6718 22.0265 26.6918 22.0965 26.6918 22.1665Z" fill="#ECC3C3"/>
<path d="M27.1418 21.5565V21.5065L27.0918 21.6165L27.1418 21.5565Z" fill="#ECC3C3"/>
<path d="M27.1518 21.4964L27.2218 21.3164C27.1769 21.3624 27.1265 21.4027 27.0718 21.4364C27.1218 21.4164 27.1618 21.4164 27.1518 21.4964Z" fill="#ECC3C3"/>
<path d="M24.0818 15.7665C24.0818 15.7665 24.0818 15.8265 24.0818 15.8565H24.1618C24.1618 15.8565 24.1318 15.7865 24.0818 15.7665Z" fill="#ECC3C3"/>
<path d="M24.1718 15.9765H24.0718C24.1042 15.965 24.1395 15.965 24.1718 15.9765V15.9765Z" fill="#ECC3C3"/>
<path d="M25.0218 16.0164C25.0218 16.0164 24.8118 16.0164 24.8618 16.0164C24.9118 16.0164 25.0418 16.1564 25.0418 16.2164C25.0418 16.2764 24.8318 16.2965 24.8818 16.3365C24.9318 16.3765 25.2719 16.5965 25.2619 16.4865C25.2519 16.3765 25.1518 16.2065 25.1118 16.0565C25.0718 15.9065 24.9018 15.8264 24.8118 15.6964C24.7218 15.5664 24.8118 15.6364 24.8118 15.5964C24.7721 15.6406 24.7354 15.6874 24.7019 15.7365C24.6619 15.8365 24.9718 15.9164 25.0218 16.0164Z" fill="#ECC3C3"/>
<path d="M24.3918 15.3365C24.3918 15.3365 24.3118 15.3365 24.2518 15.3365C24.4018 15.2565 24.4218 15.1765 24.4018 15.0965C24.3424 15.0849 24.2812 15.0849 24.2218 15.0965L24.3118 15.1465C24.1318 15.2165 24.2018 15.2865 24.3118 15.3665L24.3918 15.3365Z" fill="#ECC3C3"/>
<path d="M27.6218 25.8464H27.8118C27.7532 25.8181 27.6992 25.781 27.6518 25.7365C27.6518 25.7365 27.6918 25.8364 27.6218 25.8464Z" fill="#ECC3C3"/>
<path d="M37.0518 21.8764C36.7147 21.4434 36.4605 20.9518 36.3018 20.4265C36.2127 20.1625 36.1458 19.8916 36.1018 19.6165C36.0717 19.3406 36.0717 19.0623 36.1018 18.7864C36.13 18.3936 36.0962 17.9988 36.0018 17.6165C35.9356 17.1842 35.7562 16.777 35.4818 16.4364C35.1743 16.0759 34.7617 15.8207 34.3018 15.7065C33.9011 15.5998 33.4856 15.5593 33.0718 15.5865C31.7128 15.743 30.4032 16.1898 29.2318 16.8965C28.9918 17.0165 28.7618 17.1564 28.5318 17.2964V17.2365L28.6018 16.9265V16.8065C28.6018 16.7365 28.5518 16.7465 28.5118 16.8065C28.5555 16.7621 28.5866 16.7068 28.6018 16.6465V16.7964V16.8965C28.6018 16.6465 28.7118 16.4064 28.7418 16.1564V16.0064C28.7418 15.8164 28.7418 15.6364 28.8418 15.5364V15.4064V15.3564C28.8727 15.1678 28.8927 14.9774 28.9018 14.7864C28.9317 14.4037 28.9317 14.0192 28.9018 13.6364C28.8632 12.9574 28.6073 12.3088 28.1718 11.7864C27.9245 11.5083 27.5954 11.3158 27.2318 11.2365C26.87 11.1751 26.4985 11.206 26.1518 11.3264C25.6348 11.5091 25.0901 11.6004 24.5418 11.5964C24.2607 11.5971 23.98 11.577 23.7018 11.5364C23.4321 11.4872 23.1699 11.4032 22.9218 11.2864C22.5534 11.1434 22.1659 11.0558 21.7718 11.0264C21.3401 10.9642 20.8998 11.0123 20.4918 11.1664C20.0741 11.3617 19.7255 11.679 19.4918 12.0764C19.2665 12.4231 19.1009 12.8051 19.0018 13.2065C18.7404 14.5468 18.7677 15.9275 19.0818 17.2564C19.0818 17.4764 19.1718 17.6964 19.2218 17.9164L18.9918 17.7764H18.8818C18.8118 17.7764 18.8118 17.7765 18.8318 17.8665C18.798 17.8118 18.7577 17.7614 18.7118 17.7164L18.8518 17.7665H18.9218C18.7118 17.6365 18.4918 17.5065 18.2718 17.3965L18.1218 17.3464C17.9518 17.3464 17.7718 17.2564 17.7118 17.1064L17.5918 17.0464C17.4218 16.9664 17.2518 16.8864 17.0618 16.8164C16.7053 16.67 16.3374 16.553 15.9618 16.4664C15.429 16.3412 14.8745 16.3412 14.3418 16.4664C14.0458 16.5357 13.7714 16.6769 13.5429 16.8775C13.3144 17.0781 13.1388 17.3319 13.0318 17.6165C12.9638 17.8236 12.9235 18.0388 12.9118 18.2564V18.7864C12.9002 19.1014 12.8498 19.4138 12.7618 19.7164C12.6756 20.0324 12.5618 20.3403 12.4218 20.6364C12.2865 20.9331 12.1003 21.2038 11.8718 21.4364C11.624 21.7387 11.4219 22.0756 11.2718 22.4364C11.0783 22.831 10.9855 23.2673 11.0018 23.7065C11.0446 24.177 11.2294 24.6234 11.5318 24.9865C11.7973 25.3065 12.1111 25.5831 12.4618 25.8065C13.6518 26.4737 14.9719 26.8762 16.3318 26.9865C16.6895 27.0429 17.0501 27.0796 17.4118 27.0964C17.4118 27.1564 17.4118 27.2064 17.3418 27.2264C17.2752 27.2343 17.2108 27.2546 17.1518 27.2864L16.9218 27.4164L16.8518 27.5064C16.8518 27.5764 16.8518 27.5865 16.9218 27.5865C16.8587 27.601 16.7981 27.6245 16.7418 27.6564L16.8318 27.5364V27.4865C16.6518 27.6565 16.4718 27.8264 16.3018 28.0064L16.2118 28.1364C16.1118 28.2864 16.0218 28.4464 15.8618 28.4664L15.7718 28.5664H15.7218C15.5904 28.7027 15.4669 28.8462 15.3518 28.9964C15.1097 29.3104 14.8955 29.6451 14.7118 29.9964C14.356 30.5738 14.1981 31.2513 14.2618 31.9265C14.3124 32.3001 14.4764 32.6491 14.7318 32.9265C14.9922 33.186 15.3164 33.3722 15.6718 33.4664C16.2057 33.6056 16.7103 33.8393 17.1618 34.1564C17.3932 34.3105 17.6107 34.4845 17.8118 34.6765C18.0086 34.8707 18.18 35.0891 18.3218 35.3264C18.5488 35.6477 18.8178 35.9369 19.1218 36.1864C19.4447 36.48 19.8371 36.6865 20.2618 36.7864C20.7261 36.8838 21.2093 36.8313 21.6418 36.6364C22.0087 36.4721 22.3464 36.2492 22.6418 35.9764C23.6189 35.0209 24.3765 33.8641 24.8618 32.5865C25.0018 32.2765 25.1218 31.9564 25.2418 31.6364C25.2418 31.6364 25.2418 31.6364 25.2418 31.6964C25.2262 31.7588 25.2262 31.8241 25.2418 31.8864L25.3818 32.1864L25.4518 32.2764C25.4518 32.2764 25.5218 32.2764 25.5418 32.2764C25.527 32.3355 25.527 32.3974 25.5418 32.4565C25.5385 32.4797 25.5385 32.5032 25.5418 32.5264V32.5264L25.4518 32.4164C25.5618 32.6464 25.6718 32.8664 25.7918 33.0764L25.8918 33.2065C26.0118 33.3365 26.1318 33.4764 26.1018 33.6264L26.1818 33.7464C26.2818 33.9064 26.3818 34.0664 26.4918 34.2164C26.7153 34.5348 26.9627 34.8357 27.2318 35.1165C27.6802 35.6291 28.2845 35.9805 28.9518 36.1165C29.3197 36.1783 29.6976 36.1223 30.0318 35.9565C30.3508 35.7805 30.6194 35.5257 30.8118 35.2164C31.1016 34.7467 31.4703 34.3306 31.9018 33.9865C32.1205 33.8108 32.3511 33.6504 32.5918 33.5064C32.8371 33.382 33.0953 33.2847 33.3618 33.2164C33.7174 33.0897 34.0539 32.9148 34.3618 32.6964C34.7402 32.4788 35.0542 32.1649 35.2718 31.7864C35.5006 31.3686 35.5883 30.8881 35.5218 30.4164C35.4814 30.0069 35.3698 29.6075 35.1918 29.2365C34.5625 28.0225 33.675 26.961 32.5918 26.1264C32.5608 26.1086 32.5336 26.0849 32.5118 26.0565C32.6928 26.0463 32.873 26.0262 33.0518 25.9964H33.2018C33.3718 25.9264 33.5418 25.8664 33.6718 25.9964H33.8118H33.8718C34.0604 25.966 34.2473 25.926 34.4318 25.8764C34.8049 25.7882 35.1696 25.6678 35.5218 25.5164C36.1615 25.2809 36.7061 24.8417 37.0718 24.2664C37.2556 23.9449 37.3391 23.5758 37.3118 23.2065C37.3666 22.7468 37.2756 22.2816 37.0518 21.8764V21.8764ZM28.8518 13.4565C28.9161 13.5452 28.9507 13.6519 28.9507 13.7614C28.9507 13.871 28.9161 13.9777 28.8518 14.0664C28.7794 13.8558 28.7794 13.6271 28.8518 13.4164V13.4565ZM14.7918 30.1964C14.8011 30.0868 14.8419 29.9822 14.9094 29.8953C14.9768 29.8083 15.0679 29.7427 15.1718 29.7065C15.1003 29.9059 14.9672 30.0775 14.7918 30.1964ZM21.2318 13.5964C21.2785 13.4279 21.3603 13.2711 21.4718 13.1364C21.4718 13.1364 21.4718 13.1364 21.4718 13.1364H21.9218C22.148 13.1384 22.3718 13.1825 22.5818 13.2665C23.0477 13.4144 23.533 13.4919 24.0218 13.4964C24.453 13.5072 24.8844 13.4838 25.3118 13.4265C25.7699 13.3641 26.2194 13.25 26.6518 13.0865L26.9118 13.0064C26.9118 13.0064 26.9918 13.0064 27.1118 13.0064C27.2983 13.1218 27.4476 13.2884 27.5418 13.4865C27.6282 13.8602 27.6451 14.2466 27.5918 14.6264C27.5918 15.1664 27.5918 15.6264 27.6718 16.1564C27.7016 15.6569 27.7016 15.156 27.6718 14.6564C27.6718 14.2864 27.9918 14.9164 28.0318 15.1964C28.0318 15.3164 27.8018 15.4665 27.8418 15.5865C27.8402 15.842 27.8671 16.0968 27.9218 16.3464C27.9218 16.4764 27.7218 16.4265 27.7418 16.4865C27.7418 16.8565 27.9818 17.1964 27.8618 17.4164C27.7418 17.6364 27.7118 17.7164 27.6418 17.8564C27.0418 18.2764 26.4418 18.7264 25.8118 19.1864C25.8018 19.0233 25.8018 18.8596 25.8118 18.6964C25.8118 18.4864 25.5918 18.3064 25.4718 18.1364C25.3518 17.9664 25.5418 17.8764 25.5418 17.7764C25.5325 17.6149 25.465 17.4621 25.3518 17.3464C25.3518 17.4864 25.4618 17.5965 25.5018 17.7665C25.5418 17.9365 25.1918 17.6865 25.1218 17.6165C25.0518 17.5465 25.3318 17.5364 25.2818 17.5064C25.2318 17.4764 25.1718 17.3764 25.1018 17.2964C25.0318 17.2164 25.2918 17.2964 25.2618 17.2964C25.2318 17.2964 24.9018 17.1165 24.9718 17.0565C25.003 17.0087 25.0399 16.9651 25.0818 16.9265C25.0917 16.8973 25.0917 16.8656 25.0818 16.8365L25.0218 16.7864C24.885 16.6589 24.7611 16.5182 24.6518 16.3665V16.3665C24.6518 16.4465 24.6518 16.5265 24.5018 16.6165C24.5618 16.6165 24.6218 16.6165 24.6418 16.6165H24.5218C24.4518 16.5465 24.3818 16.4665 24.5218 16.3965H24.4418C24.4418 16.3965 24.5418 16.3965 24.6118 16.3965V16.3464C24.5171 16.3833 24.4265 16.4303 24.3418 16.4865C24.3572 16.6862 24.3572 16.8868 24.3418 17.0865C24.3918 17.0865 24.4418 17.0865 24.4118 17.0865L24.3318 17.1364C24.3318 17.1364 24.3318 17.1864 24.3318 17.2164C24.3318 17.2164 24.3918 17.2164 24.4218 17.2164C24.409 17.2203 24.397 17.2268 24.3867 17.2354C24.3764 17.2439 24.3679 17.2545 24.3618 17.2665V17.2665V17.4565C24.3618 17.4565 24.4218 17.5464 24.3118 17.5664V17.7065C24.2838 17.7985 24.2604 17.892 24.2418 17.9865C24.0918 18.6165 24.1218 19.1865 24.0118 19.8365C23.9389 20.1796 23.8316 20.5147 23.6918 20.8365C23.6862 20.8796 23.6862 20.9233 23.6918 20.9664H23.5718C23.5287 20.9608 23.485 20.9608 23.4418 20.9664L23.3518 20.8464C23.3575 20.8929 23.3575 20.94 23.3518 20.9865C23.2762 21.0021 23.2025 21.0255 23.1318 21.0565V20.9565C23.1351 20.993 23.1351 21.0298 23.1318 21.0664L22.9218 21.1864C22.6963 20.9667 22.5172 20.7038 22.3953 20.4135C22.2733 20.1232 22.2109 19.8113 22.2118 19.4964C22.2186 18.703 22.0621 17.9167 21.7518 17.1864C21.4454 16.3785 21.2928 15.5204 21.3018 14.6564C21.2576 14.3048 21.2343 13.9508 21.2318 13.5964V13.5964ZM32.7618 25.7964H32.6818L32.6018 25.7365C32.6546 25.7467 32.709 25.7467 32.7618 25.7365V25.7365V25.7964ZM24.0818 26.6964C23.972 26.7064 23.8616 26.7064 23.7518 26.6964L23.9018 26.5064C23.9018 26.5564 23.9018 26.5964 23.9718 26.5764C24.0145 26.587 24.0591 26.587 24.1018 26.5764C24.0918 26.6064 24.0918 26.6464 24.0818 26.6964V26.6964ZM21.0818 29.0964C21.0818 29.0364 21.1418 29.0164 21.2618 29.0364C21.3818 29.0564 21.1718 29.1264 21.0518 29.0964H21.0818ZM24.4818 24.0464H24.4218V23.9865V24.0364C24.4218 24.0364 24.4218 23.9864 24.4218 23.9764V24.0264V23.9764V24.0264L24.4818 24.0464ZM24.3418 17.9265C24.3418 17.9765 24.3418 18.0264 24.2318 18.0764C24.1218 18.1264 24.1918 17.9665 24.3118 17.9265H24.3418ZM16.3918 16.7065C16.18 16.6965 15.977 16.6194 15.8118 16.4865C15.9149 16.4668 16.0215 16.4771 16.119 16.5161C16.2164 16.5551 16.3007 16.6211 16.3618 16.7065H16.3918ZM14.6618 24.2164C14.2889 24.0907 13.9248 23.9404 13.5718 23.7664C13.4269 23.6743 13.3039 23.5514 13.2118 23.4064C13.2118 23.3464 13.2118 23.4064 13.2118 23.3564C13.2118 23.3064 13.2118 23.3565 13.3118 23.0565C13.3714 22.869 13.4627 22.6931 13.5818 22.5364C13.8603 22.1645 14.089 21.7577 14.2618 21.3264C14.4106 20.939 14.5309 20.5413 14.6218 20.1364C14.7174 19.6925 14.771 19.2405 14.7818 18.7864V18.2665C14.7842 18.2398 14.7842 18.213 14.7818 18.1864V18.1864C14.7818 18.1864 14.7818 18.0964 14.8418 18.0064C15.0099 17.8658 15.2145 17.7756 15.4318 17.7464C15.815 17.7783 16.1884 17.8836 16.5318 18.0565C17.0518 18.2065 17.5318 18.3465 18.0118 18.4565C17.5444 18.2815 17.0668 18.1345 16.5818 18.0165C16.2118 17.9265 16.9218 17.7864 17.2018 17.8464C17.4818 17.9064 17.3918 18.1465 17.5118 18.1465C17.7563 18.2229 18.0074 18.2764 18.2618 18.3065C18.3918 18.3065 18.2618 18.5164 18.3318 18.5264C18.6818 18.6464 19.0918 18.5264 19.2518 18.6964L19.5218 18.9565C19.7418 19.6865 19.9918 20.4165 20.2518 21.1765C20.073 21.143 19.8985 21.0893 19.7318 21.0164C19.5318 20.9564 19.2918 21.1064 19.0818 21.1664C18.8718 21.2264 18.8518 21.0165 18.7618 20.9865C18.6064 20.9323 18.4372 20.9323 18.2818 20.9865C18.4318 20.9865 18.5618 20.9865 18.7318 20.9865C18.9018 20.9865 18.5618 21.2564 18.4718 21.2964C18.3818 21.3364 18.4718 21.0664 18.4118 21.1064C18.3518 21.1464 18.2518 21.1665 18.1618 21.2065C18.0718 21.2465 18.1618 21.0264 18.1618 21.0464C18.1618 21.0664 17.8718 21.3264 17.8318 21.2464L17.7318 21.1064C17.7209 21.1011 17.709 21.0984 17.6968 21.0984C17.6847 21.0984 17.6727 21.1011 17.6618 21.1064H17.5918C17.4224 21.1936 17.2449 21.2639 17.0618 21.3164V21.3164C17.1518 21.3164 17.2218 21.3664 17.2518 21.5364C17.2518 21.4764 17.2518 21.4164 17.2518 21.4164V21.5364C17.1618 21.5364 17.0618 21.6165 17.0518 21.4265L16.9818 21.4964C16.9697 21.437 16.9697 21.3758 16.9818 21.3164V21.3164C16.9667 21.4159 16.9667 21.517 16.9818 21.6165C17.1761 21.6743 17.3665 21.7445 17.5518 21.8264C17.5518 21.8264 17.5518 21.7464 17.6118 21.7764C17.6062 21.8095 17.6062 21.8433 17.6118 21.8764H17.6818C17.6935 21.8476 17.6935 21.8153 17.6818 21.7864C17.6818 21.7864 17.6818 21.8465 17.6818 21.8665H17.6118L17.7818 21.9565H17.8318C17.8318 21.9565 17.9418 21.9564 17.9318 22.0464L18.0618 22.1165L18.3218 22.2664C18.8818 22.6164 19.4418 22.7665 20.0318 23.0865C20.352 23.2571 20.6508 23.4653 20.9218 23.7065L20.9918 23.7564C20.9942 23.9044 21.0109 24.0517 21.0418 24.1964H20.9418H21.0418C21.0418 24.1964 21.0418 24.2764 21.0418 24.3164C21.0592 24.4013 21.0826 24.4849 21.1118 24.5664C20.5455 24.856 19.8877 24.9099 19.2818 24.7164C18.5309 24.456 17.7336 24.3572 16.9418 24.4265C16.1655 24.4854 15.3848 24.4144 14.6318 24.2164H14.6618ZM18.6618 22.3164C18.5718 22.3964 18.5518 22.3164 18.5518 22.1564C18.5518 21.9964 18.6018 22.1864 18.6118 22.3164H18.6618ZM23.9418 28.9364C23.4809 29.5853 23.1638 30.3252 23.0118 31.1064C22.7952 31.9375 22.4255 32.7209 21.9218 33.4164C21.7002 33.7429 21.4563 34.0536 21.1918 34.3464C21.0613 34.4608 20.9079 34.5461 20.7418 34.5964C20.6818 34.5964 20.7418 34.5964 20.7418 34.5964C20.6413 34.5391 20.5445 34.4757 20.4518 34.4064C20.2743 34.2715 20.1191 34.1095 19.9918 33.9265C19.6948 33.5381 19.3368 33.2004 18.9318 32.9265C18.5778 32.6777 18.2069 32.4538 17.8218 32.2564C17.4107 32.0472 16.9782 31.8829 16.5318 31.7665L16.2618 31.6964C16.2618 31.6964 16.1718 31.6965 16.1018 31.5865C16.0096 31.3866 15.9783 31.164 16.0118 30.9464C16.1493 30.5794 16.3526 30.2405 16.6118 29.9464C16.9018 29.4964 17.1718 29.0664 17.4118 28.6364C17.111 29.0379 16.8371 29.4588 16.5918 29.8965C16.4018 30.2165 16.4618 29.4964 16.5918 29.2464C16.7218 28.9964 16.9318 29.1464 16.9618 29.0264C17.1056 28.8168 17.2264 28.5921 17.3218 28.3564C17.3718 28.2364 17.5318 28.3564 17.5518 28.3564C17.7718 28.0564 17.7518 27.6265 17.9818 27.5165L18.4218 27.2665L18.6218 27.1165C19.2718 27.1165 19.9318 27.1165 20.6218 27.1165H20.7218C20.6314 27.313 20.5173 27.4977 20.3818 27.6664C20.2618 27.8464 20.3818 28.1164 20.3818 28.3264C20.3818 28.5364 20.1718 28.5065 20.1118 28.5865C20.0313 28.7291 19.9997 28.8942 20.0218 29.0565C20.0218 28.9065 20.0818 28.7764 20.1418 28.6264C20.2018 28.4764 20.3518 28.8565 20.3718 28.9565C20.3918 29.0565 20.1418 28.9065 20.1718 28.9565C20.2018 29.0065 20.1718 29.1264 20.1718 29.2164C20.1718 29.3064 20.0018 29.1364 20.0118 29.1664C20.0218 29.1964 20.2118 29.5164 20.1218 29.5364L19.9618 29.5865C19.9476 29.5908 19.9348 29.5985 19.9243 29.6089C19.9138 29.6194 19.9061 29.6323 19.9018 29.6465C19.8983 29.673 19.8983 29.6999 19.9018 29.7264C19.9415 29.9105 19.9616 30.0982 19.9618 30.2864V30.2864C19.9618 30.1964 20.0518 30.1464 20.2218 30.1564C20.1618 30.1564 20.1018 30.1564 20.1218 30.0764H20.2318C20.2318 30.1764 20.2318 30.2765 20.0818 30.2365V30.3164C20.0249 30.3023 19.9708 30.2786 19.9218 30.2464C19.9208 30.2631 19.9208 30.2798 19.9218 30.2964C20.0245 30.3126 20.1291 30.3126 20.2318 30.2964C20.3404 30.1307 20.4572 29.9705 20.5818 29.8164C20.5818 29.8164 20.5218 29.7464 20.5818 29.7464H20.6818L20.7318 29.6864C20.7249 29.6703 20.7139 29.6563 20.6998 29.6457C20.6858 29.6352 20.6692 29.6285 20.6518 29.6264C20.6775 29.6365 20.7061 29.6365 20.7318 29.6264V29.6765L20.8718 29.5464C20.8718 29.5464 20.8718 29.5464 20.8718 29.4964C20.8718 29.4464 20.8718 29.3865 20.9818 29.4265L21.0918 29.3264L21.3018 29.1264C21.7818 28.6964 22.0818 28.1964 22.5418 27.7264C22.7987 27.4756 23.0801 27.2511 23.3818 27.0565C23.5118 26.9692 23.6294 26.8649 23.7318 26.7464C23.858 26.7616 23.9856 26.7616 24.1118 26.7464C24.1118 26.8964 24.0518 27.0664 24.0018 27.2464C24.2018 26.1564 24.6118 28.0164 23.9218 28.9364H23.9418ZM27.2618 34.4964C27.4278 34.6226 27.5501 34.7974 27.6118 34.9964C27.4997 34.9681 27.4 34.904 27.3278 34.8137C27.2555 34.7234 27.2148 34.612 27.2118 34.4964H27.2618ZM33.4618 30.1064C33.5331 30.2671 33.5706 30.4407 33.5718 30.6165C33.5718 30.6665 33.5718 30.6165 33.5718 30.6165C33.4871 30.693 33.3968 30.7632 33.3018 30.8264C33.1233 30.9611 32.924 31.0658 32.7118 31.1364C32.2529 31.3075 31.8242 31.5505 31.4418 31.8564C31.089 32.1232 30.7549 32.4139 30.4418 32.7264C30.1207 33.0598 29.8389 33.4289 29.6018 33.8264C29.5557 33.9056 29.5057 33.9824 29.4518 34.0565H29.4018C29.4018 34.0565 29.4018 34.1465 29.2518 34.1765C29.0376 34.211 28.8178 34.1797 28.6218 34.0865C28.3198 33.8468 28.0625 33.5557 27.8618 33.2264C27.5218 32.8064 27.1818 32.4364 26.8618 32.0764C27.1693 32.4815 27.5034 32.8657 27.8618 33.2264C28.1218 33.5064 27.4518 33.2264 27.2518 33.0364C27.0518 32.8464 27.2518 32.6765 27.1518 32.6165C26.9899 32.4162 26.8091 32.232 26.6118 32.0664C26.5018 31.9964 26.7218 31.8864 26.6718 31.8464C26.4418 31.5564 26.0318 31.4464 25.9918 31.1964L25.8718 30.7065C25.8718 30.7065 25.8718 30.6265 25.8718 30.5865C26.0718 29.9165 26.2618 29.2364 26.4618 28.5264C26.5908 28.6456 26.705 28.7799 26.8018 28.9265C26.9318 29.0865 27.2218 29.0864 27.4218 29.1364C27.6218 29.1864 27.5218 29.3864 27.5918 29.4664C27.7039 29.5838 27.8515 29.6611 28.0118 29.6864C27.8818 29.5964 27.7618 29.5464 27.6318 29.4464C27.5018 29.3464 27.9218 29.3164 28.0218 29.3264C28.1218 29.3364 27.9018 29.5265 27.9618 29.5165C28.0218 29.5065 28.1318 29.5165 28.2318 29.5165C28.3318 29.5165 28.1018 29.6564 28.1318 29.6564C28.1618 29.6564 28.5218 29.5664 28.5118 29.6564V29.8264C28.5057 29.8371 28.5024 29.8492 28.5024 29.8615C28.5024 29.8737 28.5057 29.8858 28.5118 29.8965H28.5918C28.7774 29.9102 28.9615 29.9403 29.1418 29.9865V29.9865C29.0718 29.9865 29.0418 29.8665 29.1418 29.7065C29.1418 29.7665 29.0718 29.8064 29.0318 29.7864L29.1118 29.6864C29.2018 29.6864 29.3018 29.6864 29.2118 29.8764H29.3018C29.2698 29.9237 29.2291 29.9644 29.1818 29.9964V29.9964C29.2342 29.9089 29.2745 29.8147 29.3018 29.7164C29.1731 29.5655 29.0562 29.4051 28.9518 29.2365C28.9518 29.2365 28.8618 29.2365 28.8718 29.2365V29.1465C28.8683 29.1199 28.8683 29.093 28.8718 29.0664V29.0664C28.8387 29.0812 28.8108 29.1056 28.7918 29.1364C28.7986 29.1102 28.7986 29.0827 28.7918 29.0565H28.8718L28.7818 28.8864C28.7218 28.8864 28.6718 28.8865 28.7818 28.7665L28.7218 28.6364C28.7218 28.5464 28.6318 28.4664 28.5918 28.3764C28.3218 27.7964 27.9418 27.3764 27.5918 26.7964C27.4223 26.4788 27.2882 26.1434 27.1918 25.7964C27.1712 25.7211 27.1444 25.6475 27.1118 25.5764L27.3718 25.6664C27.3172 25.625 27.2669 25.5781 27.2218 25.5264C27.2024 25.5139 27.1798 25.5073 27.1568 25.5073C27.1337 25.5073 27.1112 25.5139 27.0918 25.5264C26.9618 25.2764 26.7918 25.0764 26.6618 24.8464C26.9795 24.9614 27.2844 25.1089 27.5718 25.2864C26.5718 24.7564 28.5118 24.9065 29.1818 25.8665C29.6746 26.4892 30.2908 27.0033 30.9918 27.3764C31.7338 27.8161 32.3881 28.389 32.9218 29.0664C33.1083 29.4017 33.272 29.7492 33.4118 30.1064H33.4618ZM28.2718 28.4164C28.3818 28.4164 28.3418 28.4964 28.2718 28.6064C28.2018 28.7164 28.2118 28.5564 28.2718 28.4164ZM33.8918 24.7464C33.7918 24.8264 33.5518 24.6164 33.4618 24.6964C33.2142 24.7682 32.9759 24.8689 32.7518 24.9964C32.6518 25.0664 32.6218 24.8265 32.5718 24.8665C32.3479 24.9625 32.1335 25.0797 31.9318 25.2164C31.2418 24.7064 30.5018 24.2164 29.7418 23.7564C29.9338 23.6654 30.1349 23.595 30.3418 23.5464C30.5518 23.4764 30.6718 23.2064 30.8118 23.0264C30.9518 22.8464 31.1118 23.0264 31.2218 22.9764C31.3809 22.9112 31.5167 22.7997 31.6118 22.6564C31.4718 22.7464 31.3718 22.8464 31.2118 22.9364C31.0518 23.0264 31.2118 22.6164 31.2118 22.5264C31.2118 22.4364 31.3618 22.6964 31.3818 22.6364C31.4018 22.5764 31.4818 22.4964 31.5418 22.4064C31.6018 22.3164 31.6218 22.5764 31.6318 22.5464C31.6418 22.5164 31.7018 22.1365 31.7918 22.1765L31.9618 22.2365C31.9755 22.2444 31.991 22.2485 32.0068 22.2485C32.0226 22.2485 32.0381 22.2444 32.0518 22.2365V22.1664C32.1442 21.9888 32.2548 21.8212 32.3818 21.6664V21.6664C32.3018 21.7164 32.2118 21.7265 32.0818 21.6165C32.0818 21.6165 32.1518 21.7164 32.0818 21.7464L32.0118 21.6364C32.0118 21.5564 32.1218 21.4664 32.2418 21.6364V21.5464C32.2418 21.5464 32.2418 21.6364 32.3218 21.6964C32.2544 21.614 32.1771 21.5402 32.0918 21.4764C31.8905 21.5535 31.6831 21.6137 31.4718 21.6564C31.4718 21.7064 31.4718 21.7565 31.4718 21.7365L31.4018 21.6664H31.3118C31.3048 21.6804 31.3011 21.6958 31.3011 21.7115C31.3011 21.7271 31.3048 21.7425 31.3118 21.7564L31.2518 21.7065H31.0518C31.0518 21.7565 30.9718 21.8065 30.9118 21.7065H30.7618H30.4418C29.7418 21.7665 29.1518 21.9864 28.4418 22.0964C28.056 22.1314 27.6677 22.1314 27.2818 22.0964C26.8719 22.1068 26.4652 22.1707 26.0718 22.2864V22.1964C26.2599 21.9999 26.4639 21.8193 26.6818 21.6564C25.8418 22.3564 26.6818 20.6564 27.8018 20.3564C28.5626 20.1271 29.2675 19.7423 29.8718 19.2264C30.548 18.6899 31.3176 18.283 32.1418 18.0264C32.518 17.906 32.9023 17.8125 33.2918 17.7464C33.4652 17.7426 33.6379 17.7697 33.8018 17.8264C33.8018 17.8264 33.8018 17.8264 33.8018 17.8264C33.8018 17.8264 33.8018 17.8264 33.8018 17.8764C33.8445 17.9843 33.8812 18.0945 33.9118 18.2065C33.9703 18.4212 33.9906 18.6446 33.9718 18.8665C33.9752 19.3546 34.0493 19.8396 34.1918 20.3065C34.3171 20.7199 34.4708 21.1242 34.6518 21.5164C34.854 21.9338 35.0987 22.3292 35.3818 22.6964C35.5018 22.8564 35.5418 22.9365 35.5418 22.9265C35.5418 22.9165 35.5418 22.9264 35.5418 22.9764C35.5418 23.0264 35.6118 23.0364 35.6018 23.1564C35.5541 23.3711 35.4425 23.5663 35.2818 23.7164C34.9505 23.9076 34.5884 24.0396 34.2118 24.1064C33.7018 24.2864 33.2118 24.4565 32.7718 24.6465C33.2538 24.5135 33.728 24.3532 34.1918 24.1664C34.6418 24.1364 34.1418 24.6564 33.9218 24.7764L33.8918 24.7464ZM30.5118 21.8065C30.5118 21.6865 30.6218 21.8065 30.7018 21.8665C30.7818 21.9265 30.5918 21.9265 30.5118 21.8365V21.8065ZM35.2118 25.1564C35.3909 25.0443 35.601 24.9918 35.8118 25.0064C35.7429 25.0951 35.6481 25.1601 35.5406 25.1923C35.433 25.2246 35.3181 25.2225 35.2118 25.1864V25.1564Z" fill="#ECC3C3"/>
<path d="M32.9218 20.9564H32.8318C32.8601 20.9741 32.8841 20.998 32.9018 21.0264C32.9018 21.0264 32.9218 21.0064 32.9218 20.9564Z" fill="#ECC3C3"/>
<path d="M32.6618 21.0165L32.7318 21.0665C32.7031 21.059 32.6782 21.0412 32.6618 21.0165V21.0165Z" fill="#ECC3C3"/>
<path d="M33.2418 21.6364L33.0618 21.5764C32.9818 21.5764 32.9918 21.8564 32.9018 21.9364C32.8118 22.0164 32.8318 21.7364 32.8118 21.7964C32.7918 21.8564 32.7218 22.0164 32.6518 22.0364C32.5818 22.0564 32.5018 21.8564 32.4918 21.9164C32.4818 21.9764 32.3418 22.3764 32.4918 22.3264C32.6274 22.2412 32.7577 22.1477 32.8818 22.0464C32.9818 21.9164 33.0618 21.7664 33.1718 21.6464C33.2818 21.5264 33.2018 21.6364 33.2418 21.6364Z" fill="#ECC3C3"/>
<path d="M33.3818 20.9765C33.5218 21.0865 33.6118 21.0865 33.6818 21.0365C33.6699 20.977 33.6423 20.9217 33.6018 20.8765V20.9665C33.4718 20.8265 33.4218 20.9165 33.3618 20.9665C33.3884 20.9974 33.4119 21.0309 33.4318 21.0665C33.4318 21.0665 33.4418 21.0165 33.3818 20.9765Z" fill="#ECC3C3"/>
<path d="M23.7818 26.8464V27.2065C23.8 27.143 23.8269 27.0824 23.8618 27.0264C23.9218 26.9464 23.8318 26.9064 23.7818 26.8464Z" fill="#ECC3C3"/>
<path d="M23.9218 28.1464C23.937 28.0436 23.937 27.9392 23.9218 27.8364C23.8993 27.9385 23.8993 28.0443 23.9218 28.1464V28.1464Z" fill="#ECC3C3"/>
<path d="M23.8518 27.6565L23.9118 27.8365C23.9005 27.7771 23.9005 27.716 23.9118 27.6565C23.9118 27.6565 23.9218 27.7165 23.8518 27.6565Z" fill="#ECC3C3"/>
<path d="M29.7118 30.1664C29.7118 30.1664 29.7118 30.1664 29.7918 30.1664C29.8718 30.1664 29.7918 30.1164 29.7918 30.0864L29.7118 30.1664Z" fill="#ECC3C3"/>
<path d="M29.5918 30.0565C29.5918 30.0565 29.6418 29.9965 29.6718 29.9965C29.6522 30.0245 29.6242 30.0455 29.5918 30.0565Z" fill="#ECC3C3"/>
<path d="M28.9218 30.5564C28.9218 30.5564 29.0818 30.4164 29.0218 30.4264C28.9618 30.4364 28.7918 30.4264 28.7518 30.3764C28.7118 30.3264 28.8718 30.1864 28.8118 30.1864C28.7518 30.1864 28.3418 30.2364 28.4218 30.3064C28.5439 30.3935 28.6707 30.4736 28.8018 30.5464C28.9518 30.5464 29.1118 30.5964 29.2518 30.6364C29.2604 30.6658 29.2604 30.697 29.2518 30.7264V30.5564C29.3018 30.4664 29.0118 30.5964 28.9218 30.5564Z" fill="#ECC3C3"/>
<path d="M29.9218 30.5764L29.8418 30.6764C29.8418 30.6764 29.9318 30.6764 29.9518 30.6064C29.8918 30.7664 29.9518 30.8364 29.9518 30.8864C29.9518 30.9364 30.0618 30.7964 30.0718 30.7564H29.9818C30.0918 30.6064 29.9918 30.5964 29.9218 30.5764Z" fill="#ECC3C3"/>
<path d="M20.7918 24.4765L20.8918 24.4065L20.7918 24.4765Z" fill="#ECC3C3"/>
<path d="M20.3018 24.7664C20.4043 24.7286 20.5017 24.6783 20.5918 24.6165C20.485 24.6439 20.3859 24.6952 20.3018 24.7664V24.7664Z" fill="#ECC3C3"/>
<path d="M20.7418 24.5165L20.5818 24.6165H20.7718C20.7318 24.5965 20.7018 24.5665 20.7418 24.5165Z" fill="#ECC3C3"/>
<path d="M20.0118 31.0264L20.0718 30.9564H19.9818C19.9818 30.9564 19.9818 30.9864 20.0118 31.0264Z" fill="#ECC3C3"/>
<path d="M20.0518 30.7964C20.0518 30.7964 20.1218 30.7964 20.1318 30.8564V30.7964H20.0518Z" fill="#ECC3C3"/>
<path d="M19.4718 29.7365C19.4118 29.8965 19.4018 30.0165 19.3518 30.1665C19.3018 30.3165 19.3518 30.4865 19.3518 30.6365C19.3518 30.7865 19.3518 30.6365 19.2718 30.7065L19.4418 30.6564C19.5318 30.6564 19.3218 30.4065 19.3318 30.2865C19.3418 30.1665 19.5218 30.3965 19.4918 30.3465C19.4618 30.2965 19.4218 30.1265 19.4918 30.0765C19.5618 30.0265 19.7118 30.0765 19.6818 30.0765C19.6518 30.0765 19.5218 29.6365 19.4718 29.7365Z" fill="#ECC3C3"/>
<path d="M19.5218 31.2064C19.5218 31.2064 19.5218 31.2864 19.6218 31.2864C19.4518 31.2864 19.3918 31.3364 19.3618 31.4164C19.4108 31.4486 19.4649 31.4723 19.5218 31.4864V31.4064C19.7018 31.4064 19.6918 31.3464 19.6718 31.2464L19.5218 31.2064Z" fill="#ECC3C3"/>
<path d="M19.3418 31.4665C19.3408 31.4498 19.3408 31.4332 19.3418 31.4165V31.4165V31.4665Z" fill="#ECC3C3"/>
<path d="M22.9518 20.6465L22.8918 20.6165L22.9918 20.6964L22.9518 20.6465Z" fill="#ECC3C3"/>
<path d="M22.5418 20.2665C22.6011 20.3523 22.6717 20.4297 22.7518 20.4965C22.7018 20.4037 22.6297 20.3247 22.5418 20.2665V20.2665Z" fill="#ECC3C3"/>
<path d="M22.9218 20.6165L22.7718 20.4965C22.8006 20.5531 22.8208 20.6138 22.8318 20.6765C22.8218 20.6265 22.8318 20.5865 22.9218 20.6165Z" fill="#ECC3C3"/>
<path d="M16.3418 21.6864H16.4218C16.4156 21.6568 16.4156 21.6261 16.4218 21.5964C16.4218 21.5964 16.3718 21.6464 16.3418 21.6864Z" fill="#ECC3C3"/>
<path d="M16.5318 21.7565H16.5918C16.5861 21.7301 16.5861 21.7029 16.5918 21.6765C16.5918 21.6765 16.5618 21.7365 16.5318 21.7565Z" fill="#ECC3C3"/>
<path d="M17.1718 21.1265C17.2618 21.1265 17.5518 20.8365 17.4318 20.8165C17.3118 20.7965 17.1418 20.8165 16.9818 20.8165C16.8218 20.8165 16.6918 20.9465 16.5418 20.9865C16.3918 21.0265 16.4819 20.9865 16.4519 20.9265L16.5518 21.0765C16.5518 21.1565 16.7618 20.8965 16.8718 20.8765C16.9818 20.8565 16.8118 21.0765 16.8718 21.0365C16.9318 20.9965 17.0618 20.9165 17.1218 20.9365C17.1818 20.9565 17.1318 21.1665 17.1718 21.1265Z" fill="#ECC3C3"/>
<path d="M15.9718 21.4164C15.9718 21.2464 15.8618 21.2064 15.7718 21.1964C15.6818 21.1864 15.7718 21.3364 15.7718 21.3764L15.8418 21.3064C15.8418 21.4964 15.9418 21.4564 16.0318 21.4164C16.1218 21.3764 16.0318 21.3364 16.0318 21.2964C16.0318 21.2564 15.9218 21.3264 15.9718 21.4164Z" fill="#ECC3C3"/>
</svg>
