<svg xmlns="http://www.w3.org/2000/svg" viewBox="0 0 519.6 95.6">
  <defs>
    <style>
      .cls-1 {
        fill: #ffffff;
        opacity: 0.5;
      }

      .cls-2 {
        fill: #111724;
      }
    </style>
  </defs>
  <g id="Layer_2" data-name="Layer 2">
    <g id="Layer_1-2" data-name="Layer 1">
      <g>
        <g>
          <path class="cls-1" d="M54.3,95.6c10.72,0,23.44-5.49,33.18-14.32C98.73,71.09,104.93,57.83,104.93,44c0-14.11-5.26-25.74-15.21-33.63C81.32,3.67,69.93,0,57.63,0,38.83,0,0,11.68,0,47.8,0,69.61,9.42,95.6,54.3,95.6ZM57.06,9.53c9.13,0,16.55,16.54,16.55,36.88,0,21.3-7.74,35.48-9.39,36.9-1.4,1.07-6.14,2.32-14.9,2.32-6.79,0-13.63-1.25-15.2-2.14C32.81,81.71,27,69.2,27,45.69,27,28.46,42.74,9.53,57.06,9.53Z"/>
          <path class="cls-2" d="M57.63,3.6c-19,0-54,11.68-54,44.2C3.6,87.33,35,92,54.3,92s47-19.68,47-48S79,3.6,57.63,3.6Zm8.78,82.57C63.35,88.51,56,89.23,49.32,89.23S33.67,88,31.69,86.17s-8.28-16-8.28-40.48C23.41,27,40.29,5.93,57.06,5.93c12.23,0,20.15,19.25,20.15,40.48S69.47,83.84,66.41,86.17Z"/>
        </g>
        <g>
          <path class="cls-1" d="M174.28,36.92c-.27,2.49-.52,4.8-.72,6.73-1.14,10.89-3,35.43-3,36.73,0,.87,0,2-4,6.67C163,91.21,161.46,92,159.83,92c-2.44,0-4.32-1.63-6.69-10a99.49,99.49,0,0,1-3-16.7l-10.62.24a28.16,28.16,0,0,1-.63,3.76c-.54,2.08-1.08,4.77-1.6,7.37C136,83.11,135,87.37,133.56,89.9L129,93.61a14.23,14.23,0,0,1-5.28.77h-1.07A7.78,7.78,0,0,1,116.82,92a9.16,9.16,0,0,1-2.12-7.26c.1-1.17.4-2.73.83-4.88.62-3.2,1.51-7.73,2.19-13.52a6.71,6.71,0,0,1-4.3-1.89,6.78,6.78,0,0,1-1.78-5.1c.11-4.79,4-6,7-6.28,0-1.31.06-2.62.06-3.94a202.36,202.36,0,0,0-1.28-22.66c-.55-5.3-.85-8.22.08-10.56.54-1.33,2.1-3.57,6.57-3.57,4.69,0,12.65,2.55,14.9,5.42.8,1,1.69,2.15,1.76,16.27,0,6.29-.13,13.66-.43,20,2.77.15,5.85.29,8.59.34a219.91,219.91,0,0,1-.73-24.72c.12-3.31.18-6.22.23-8.75.2-10.1.29-14.27,3-16.8C154,1.71,158,1.22,160.94,1.22a25.08,25.08,0,0,1,4.18.35c1.56.27,9.45,1.83,11.21,5.79C177,8.9,177.1,10.77,174.28,36.92Z"/>
          <path class="cls-2" d="M173,8.82c-.64-1.45-4.83-3.06-8.53-3.7S156,4.8,153.87,6.73s-1.61,8.69-2.09,23A217.87,217.87,0,0,0,152.87,58c-4.23.11-10.36-.19-16.34-.55.84-14.1.93-35.81-.37-37.47-1.77-2.25-14-6-15.3-2.73s1.45,12.07,1.45,31.88c0,2.62-.07,5.1-.18,7.46-5.76-.13-6.85.86-6.89,2.84-.08,3.74,2.72,3.53,6.48,3.22-1.06,11.92-3.19,19.49-3.43,22.38-.33,3.87,1.61,5.8,4.34,5.8s5,.16,7.25-1.93,3.7-13.69,5.47-20.45A45.31,45.31,0,0,0,136.2,62c8.48-.23,17.19-.4,17.19-.4,1.1,16.06,5.31,26.73,6.44,26.73s7.08-7.09,7.08-8.06,1.94-26.24,3.06-37S173.68,10.27,173,8.82Z"/>
        </g>
        <g>
          <path class="cls-1" d="M243,70.82c-.41-2.16-2.8-10.42-6.68-23.75-3.14-10.8-6.39-22-7.28-25.71-.6-2.56-1-4.56-1.28-6.17-.72-3.8-1.24-6.55-4.25-7.46a6,6,0,0,0-1.71-.23,25.31,25.31,0,0,0-4.25.58,58.52,58.52,0,0,1-6.1.91c-1.43.11-2.64.13-3.7.14a20.6,20.6,0,0,0-3.41.25l-4.57,3.71A48.36,48.36,0,0,0,198,20.83a97.31,97.31,0,0,1-2.95,12.89c-.76,2.27-2.21,7.24-3.87,13.08a14,14,0,0,0-2.7-.34c-3.41,0-5,2.27-5.15,4.52-.07,1.57,0,3.86,1.61,5.53a5.16,5.16,0,0,0,3.1,1.54c-2.8,10.13-5.35,19.64-5.57,20.69a4.24,4.24,0,0,0,.91,3.54c2,2.49,6.75,2.68,8.15,2.68,3.23,0,5.32-1,6.2-2.91,1.54-3.39-1.63-5.93-3.52-7.44l-.77-.63a112.24,112.24,0,0,1,4-16.8,1,1,0,0,1,0-.16c5.11-.18,15-.32,19.83-.39,2.91,10.61,5.46,20.12,6.37,23.71.79,3.09,2,7.76,6.18,7.76a6.18,6.18,0,0,0,2.19-.45l.3-.11L239,81.93C241.57,78.55,243.69,74.26,243,70.82ZM200.49,47.89c2-6.34,5.29-16.44,7.74-23.35,1.82,5.95,4.28,14.58,6.72,23.35Z"/>
          <path class="cls-2" d="M187,51.15c.12-2.63,6.2.34,9.74.34h23L220.1,53s-20.73.24-25.21.53S186.71,56.66,187,51.15Z"/>
          <path class="cls-2" d="M203.27,14.11c.89-1.89,3.34-1.12,8.49-1.53s9.34-1.82,10.73-1.4,1.26,3.35,3.07,11,13.09,45,13.93,49.32-6.27,12.12-7.94,12.54-2.65,2-4.32-4.6-17.14-64.23-18.67-64.51S196.72,48.1,194.07,56A104,104,0,0,0,189.75,75c0,1.4,5.44,4,4.74,5.57s-8.82.7-8.45-1.11S196,42.39,198.5,34.87,202,16.76,203.27,14.11Z"/>
        </g>
        <g>
          <path class="cls-1" d="M346.33,60c.25-1,.54-2.12.79-2.85l.05-.17c5.11-.17,15-.32,19.83-.38,2.91,10.6,5.46,20.12,6.37,23.71.79,3.09,2,7.76,6.18,7.76h0a6.15,6.15,0,0,0,2.19-.46,2.81,2.81,0,0,1,.31-.1c3.31-.83,11.85-10.28,10.6-16.72-.41-2.17-2.8-10.42-6.68-23.76-3.14-10.8-6.39-22-7.28-25.7-.6-2.57-1-4.57-1.28-6.17-.72-3.81-1.24-6.56-4.25-7.46a6,6,0,0,0-1.7-.23,25.28,25.28,0,0,0-4.26.58,56.11,56.11,0,0,1-6.1.9c-1.43.12-2.63.13-3.7.15-2.89,0-6.17.08-7.76,3.43-.73,1.55-1.2,4-2,8.27a97.16,97.16,0,0,1-2.95,12.88c-.62,1.85-2.25,7.24-4,13.07a13,13,0,0,0-2.62-.32c-3.41,0-5,2.27-5.15,4.52a7.29,7.29,0,0,0,1.61,5.53A5.18,5.18,0,0,0,337.56,58c-1,3.65-1,4.41-.87,5.09a4.84,4.84,0,0,0-.83,1.65c-1.28,4.68-3.5,12.89-3.72,14a4.26,4.26,0,0,0,.91,3.55c2,2.49,6.75,2.68,8.15,2.68,3.23,0,5.32-1,6.2-2.91,1.54-3.39-1.63-5.93-3.52-7.45l-.7-.56c.18-.93.44-2.17.64-3.11,1-4.75,1.14-5.47.83-6.45l.12-.13C345.41,63.51,345.67,62.59,346.33,60Zm11.53-35.49c1.82,5.95,4.28,14.58,6.72,23.35H350.12C352.15,41.54,355.41,31.45,357.86,24.54Z"/>
          <path class="cls-2" d="M340.23,62.43c-.18-.63,6.51-23.41,7.91-27.57,2.53-7.52,3.5-18.11,4.76-20.76.89-1.88,3.34-1.11,8.5-1.53s9.33-1.81,10.72-1.39,1.26,3.34,3.07,11,13.09,45,13.93,49.32S382.85,83.63,381.18,84s-2.65,1.95-4.32-4.59-17.14-64.23-18.67-64.51S346.35,48.1,343.7,56c-.66,2-1.39,5.6-1.79,6.11S340.41,63.05,340.23,62.43Z"/>
          <path class="cls-2" d="M341.18,65.45c.13.36-1.8,8.65-1.8,9.54,0,1.39,5.44,4,4.74,5.57s-8.81.7-8.45-1.11c.14-.71,1.69-6.5,3.66-13.74a1.21,1.21,0,0,1,1.27-.92C340.8,64.81,341.05,65.09,341.18,65.45Z"/>
          <path class="cls-2" d="M336.6,51.14c.12-2.62,6.2.35,9.74.35h23l.41,1.5s-20.73.24-25.21.54S336.34,56.66,336.6,51.14Z"/>
        </g>
        <g>
          <path class="cls-1" d="M322.26,44.57C322,49.66,322,63.7,322,75c0,15.11,0,15.11-.31,15.94-.65,1.95-2.71,3.12-5.51,3.12a7.09,7.09,0,0,1-4.56-1.5c-1-.87-1.7-2.18-2.79-4.34a54.55,54.55,0,0,0-7-11.09c-4.4-5.21-27.17-27.66-37.68-37.78,0,.52,0,1,0,1.46.12,6.6.12,7.89-.84,9.23l0,0c1.31,1.61,1.38,4.72,1.46,9.3.08,3.86,0,8.44,0,11.18,0,.92,0,1.65,0,2.09a87.43,87.43,0,0,0,1.47,8.7c1.25,6.27,1.44,7.24.73,8.66a3.85,3.85,0,0,1-3.48,2.11,8.41,8.41,0,0,1-3.83-1.32l-1.11-.56-.2,0a9.54,9.54,0,0,1-1.15.08,4.46,4.46,0,0,1-4.4-3.06c-.7-2.08-.09-9.54.26-11a96.58,96.58,0,0,0,1-12.84c0-1.74,0-3.14-.07-4.29a21.93,21.93,0,0,1,.22-5.25,6.88,6.88,0,0,1,2-3.32,6.09,6.09,0,0,1-2.16-4.29c0-.68,0-3,0-7.69.06-6.78.14-16.08,0-19.75-.09-2-.27-4-.44-5.7-.41-4.25-.66-6.82.61-8.72a3.88,3.88,0,0,1,3.25-1.72c1.55,0,3.91,0,21.78,17.92,19.87,19.92,29,28.27,33.1,31.75.27-4.17.34-12.54-.35-29.25,0-1.2-.09-2.13-.11-2.71a16.67,16.67,0,0,0-1.69-5.29c-1.1-2.51-2.3-5.27-1.86-8l6.54-5.61.31,0c3.46,0,6.2,2.37,7,6.05C323.24,12.59,322.6,37.65,322.26,44.57Z"/>
          <path class="cls-2" d="M312.37,6.6c1.25-2,5.43-2.38,6.3,1.74s.43,27.15,0,36.05-.22,44.74-.44,45.39-3,1.09-4.34,0-3.48-8-9.34-15-42.13-42.35-43.43-43.22-.05,15.38-.74,16.36-2.61-.16-2.7-1.81.26-21.49,0-27.41-1.3-11-.43-12.27,11.82,9.07,19.48,16.75,34.89,35,37.79,35,1.16-32.76,1-37.82S310.34,9.83,312.37,6.6Z"/>
          <path class="cls-2" d="M257.74,54.71c.21-1,1.69-2.44,2.71-2.31s.68,17.17.68,20.23,2.92,15.06,2.58,15.74-3.6-1.7-4.75-1.76-2.45.54-2.79-.48,0-7.6.34-9a95.55,95.55,0,0,0,1.16-13.71C257.67,58.58,257.39,56.29,257.74,54.71Z"/>
        </g>
        <g>
          <path class="cls-1" d="M478.13,16.68c-.14-3.27-.25-6.09-.55-8.22-.57-4.14-2.26-6.24-5-6.24h-.25c-1.76.11-4.49,1.39-17.15,8.06-4.85,2.55-11.3,5.95-13.65,6.91-1.82-.92-6.09-3.9-8.51-5.59-5.31-3.71-6.69-4.6-8.05-4.84a11.24,11.24,0,0,0-2.12-.2,39.24,39.24,0,0,0-7.44,1.14c-5.43,1.12-8,2.42-10.14,5.17-1.41,1.79-1.28,4.09-1,8.67A130.67,130.67,0,0,1,404,43a195.4,195.4,0,0,1-3.92,23.49c-1.37,6.37-1.91,9-1.38,11.07.67,2.53,8.21,15.8,13.66,15.8a4.4,4.4,0,0,0,1-.13c2.19-.53,5.84-1.43,11.86-34.85a256.39,256.39,0,0,0,3.34-33.1,69,69,0,0,1,4.51,5.56c.23.32.41.56.52.69,1.54,2,4.17,2.26,5.6,2.26a7,7,0,0,0,4.39-1.3,36.34,36.34,0,0,0,4.25-5l1-1.25a18.52,18.52,0,0,1,4-2.9c1,6.53,3,15.59,5.32,25.68,1.65,7.26,3.35,14.77,4.82,22.06,3.48,17.24,6,22.23,11.09,22.23l.5,0h.13c5.25,0,9.33-11.31,9.47-13.06.21-2.83-3.48-38.9-5-49.61C478.5,25.92,478.3,21,478.13,16.68Z"/>
          <path class="cls-2" d="M408.07,15.1c1.33-1.7,2.78-2.78,8-3.87s6.49-1.23,8.19-.92S439.13,21,441.45,21,469.88,6,472.51,5.83,473.9,19,475.6,31.17,480.7,78,480.55,80s-4.18,9.74-5.88,9.74-4,1.39-8.19-19.32-10.35-43.66-10.66-52.78c0,0-7.77,3.82-9.82,6.42a56.34,56.34,0,0,1-4.69,5.66c-.87.71-4,.71-4.88-.39s-6.53-9.28-11.25-11.41c0,0-.17,21.39-3.49,39.84s-6.92,31.44-9.17,32-9.6-10.25-10.35-13.1,3.75-15.9,5.4-33.3S406.73,16.8,408.07,15.1Z"/>
        </g>
        <g>
          <path class="cls-1" d="M518.94,36.92c0-27.6-1.31-28.25-3.71-29.44A9.21,9.21,0,0,0,511,6.8c-1.25,0-2.68.07-4.2.15-1.31.07-2.66.14-3.89.16-5.16.08-6.88,1.31-8.57,3.87-1.12,1.7-1.12,3.65-.58,16.42.3,7.23.72,17.12.72,27.85V61.7c0,8.85,0,14.7.22,18.47.18,3,.5,8.1,4.79,8.6a4.68,4.68,0,0,0,.55,0c3.76,0,16.89-7,18.79-15.53,1-4.7.76-12.44.44-21.4C519.13,47,518.94,42,518.94,36.92Z"/>
          <path class="cls-2" d="M497.38,13c.95-1.44,1.46-2.19,5.62-2.25s9.29-.67,10.63,0,1.71,11.79,1.71,26.21,1.47,29,0,35.57-13.32,13-15.4,12.71-1.83-7.34-1.83-29.95S496.31,14.58,497.38,13Z"/>
        </g>
      </g>
    </g>
  </g>
</svg>
