<svg xmlns="http://www.w3.org/2000/svg" viewBox="0 0 104.93 578.94">
  <defs>
    <style>
      .cls-1 {
        fill: #ffffff;
        opacity: 0.5;
      }

      .cls-2 {
        fill: #111724;
      }
    </style>
  </defs>
  <g id="Layer_2" data-name="Layer 2">
    <g id="Layer_1-2" data-name="Layer 1">
      <g>
        <g>
          <path class="cls-1" d="M54.3,95.6c10.72,0,23.44-5.49,33.18-14.32C98.73,71.09,104.93,57.83,104.93,44c0-14.11-5.26-25.74-15.21-33.63C81.32,3.67,69.93,0,57.63,0,38.83,0,0,11.68,0,47.8,0,69.61,9.42,95.6,54.3,95.6ZM57.06,9.53c9.13,0,16.55,16.54,16.55,36.88,0,21.3-7.74,35.48-9.39,36.9-1.4,1.07-6.14,2.32-14.9,2.32-6.79,0-13.63-1.25-15.2-2.14C32.81,81.71,27,69.2,27,45.69,27,28.46,42.74,9.53,57.06,9.53Z"/>
          <path class="cls-2" d="M57.63,3.6c-19,0-54,11.68-54,44.2C3.6,87.33,35,92,54.3,92s47-19.68,47-48S79,3.6,57.63,3.6Zm8.78,82.57C63.35,88.51,56,89.23,49.32,89.23S33.67,88,31.69,86.17s-8.28-16-8.28-40.48C23.41,27,40.29,5.93,57.06,5.93c12.23,0,20.15,19.25,20.15,40.48S69.47,83.84,66.41,86.17Z"/>
        </g>
        <g>
          <path class="cls-1" d="M82.41,130c-.27,2.49-.52,4.8-.72,6.73-1.14,10.89-3,35.43-3,36.73,0,.87,0,2-4,6.67C71.08,184.27,69.59,185,68,185c-2.44,0-4.32-1.63-6.69-10a99.49,99.49,0,0,1-3.05-16.7l-10.62.24a28.16,28.16,0,0,1-.63,3.76c-.54,2.08-1.08,4.77-1.6,7.37-1.29,6.43-2.21,10.69-3.68,13.22l-4.57,3.71a14.23,14.23,0,0,1-5.28.77H30.77A7.78,7.78,0,0,1,25,185a9.16,9.16,0,0,1-2.12-7.26c.1-1.17.4-2.73.83-4.88.62-3.2,1.51-7.73,2.19-13.52a6.71,6.71,0,0,1-4.3-1.89,6.78,6.78,0,0,1-1.78-5.1c.11-4.79,4-6,7-6.28,0-1.31.06-2.62.06-3.94a202.36,202.36,0,0,0-1.28-22.66c-.55-5.3-.85-8.22.08-10.56.54-1.33,2.1-3.57,6.57-3.57,4.69,0,12.65,2.55,14.9,5.42.8,1,1.69,2.15,1.76,16.27,0,6.29-.13,13.66-.43,20,2.77.15,5.85.29,8.59.34a219.91,219.91,0,0,1-.73-24.72c.12-3.31.18-6.22.23-8.75.2-10.1.29-14.27,3-16.8,2.57-2.37,6.59-2.86,9.51-2.86a25.08,25.08,0,0,1,4.18.35c1.56.27,9.45,1.83,11.21,5.79C85.14,102,85.23,103.83,82.41,130Z"/>
          <path class="cls-2" d="M81.17,101.88c-.64-1.45-4.83-3.06-8.53-3.7S64.1,97.86,62,99.79s-1.61,8.69-2.09,23A217.87,217.87,0,0,0,61,151c-4.23.11-10.36-.19-16.34-.55.84-14.1.93-35.81-.37-37.47-1.77-2.25-14-6-15.3-2.73s1.45,12.07,1.45,31.88c0,2.62-.07,5.1-.18,7.45-5.76-.12-6.85.87-6.89,2.85-.08,3.74,2.71,3.53,6.48,3.22-1.06,11.92-3.19,19.49-3.44,22.38-.32,3.87,1.61,5.8,4.35,5.8s5,.16,7.25-1.93,3.7-13.69,5.47-20.45a45.31,45.31,0,0,0,.85-6.36c8.48-.23,17.19-.4,17.19-.4,1.1,16.06,5.31,26.72,6.44,26.72s7.08-7.08,7.08-8,1.93-26.24,3.06-37S81.81,103.33,81.17,101.88Z"/>
        </g>
        <g>
          <path class="cls-1" d="M80.39,244.4c-.41-2.16-2.8-10.42-6.68-23.75-3.14-10.8-6.39-22-7.28-25.71-.6-2.56-1-4.56-1.28-6.17-.72-3.8-1.24-6.55-4.25-7.46a6,6,0,0,0-1.71-.23,25.31,25.31,0,0,0-4.25.58,58.52,58.52,0,0,1-6.1.91c-1.43.11-2.64.13-3.7.14a20.6,20.6,0,0,0-3.41.25l-4.57,3.71a48.36,48.36,0,0,0-1.75,7.74,97.31,97.31,0,0,1-2.95,12.89c-.76,2.27-2.21,7.24-3.87,13.08a14,14,0,0,0-2.7-.34c-3.41,0-5,2.27-5.15,4.52-.07,1.57,0,3.86,1.61,5.53a5.16,5.16,0,0,0,3.1,1.54c-2.8,10.13-5.35,19.64-5.57,20.69a4.24,4.24,0,0,0,.91,3.54c2,2.49,6.75,2.68,8.15,2.68,3.23,0,5.32-1,6.2-2.91,1.54-3.39-1.63-5.93-3.52-7.44l-.77-.63a112.24,112.24,0,0,1,4-16.8,1,1,0,0,1,0-.16c5.11-.18,15-.32,19.83-.39,2.91,10.61,5.46,20.12,6.37,23.71.79,3.09,2,7.76,6.18,7.76a6.18,6.18,0,0,0,2.19-.45l.3-.11,6.54-5.61C78.94,252.13,81.06,247.84,80.39,244.4ZM37.86,221.47c2-6.34,5.29-16.44,7.74-23.35,1.82,5.95,4.28,14.58,6.72,23.35Z"/>
          <path class="cls-2" d="M24.33,224.73c.13-2.63,6.21.34,9.74.34h23l.42,1.51s-20.73.24-25.21.53S24.07,230.24,24.33,224.73Z"/>
          <path class="cls-2" d="M40.63,187.69c.9-1.89,3.35-1.12,8.5-1.54s9.34-1.81,10.73-1.39,1.25,3.35,3.06,11,13.1,45,13.94,49.32-6.27,12.12-8,12.54-2.64,1.95-4.31-4.6S47.46,188.8,45.93,188.52s-11.85,33.16-14.49,41.1a103.8,103.8,0,0,0-4.32,18.95c0,1.39,5.43,4,4.73,5.57s-8.81.7-8.44-1.11S33.34,216,35.87,208.45,39.38,190.33,40.63,187.69Z"/>
        </g>
        <g>
          <path class="cls-1" d="M34.06,385.26c.26-1,.55-2.12.79-2.85l.06-.17c5.11-.17,15-.32,19.82-.38,2.92,10.6,5.46,20.12,6.38,23.71.79,3.09,2,7.76,6.18,7.76h0a6.2,6.2,0,0,0,2.19-.46l.31-.11c3.3-.82,11.85-10.27,10.6-16.71-.42-2.17-2.81-10.42-6.69-23.76-3.14-10.8-6.39-22-7.27-25.7-.61-2.57-1-4.57-1.29-6.17-.72-3.81-1.24-6.56-4.25-7.46a5.64,5.64,0,0,0-1.7-.23,25.31,25.31,0,0,0-4.25.58,56.48,56.48,0,0,1-6.1.9c-1.43.12-2.64.13-3.71.15-2.89,0-6.17.08-7.75,3.43-.73,1.54-1.2,4-2,8.27a97.49,97.49,0,0,1-2.94,12.88c-.62,1.85-2.25,7.24-4,13.07a13,13,0,0,0-2.62-.32c-3.41,0-5,2.27-5.14,4.51a7.26,7.26,0,0,0,1.6,5.53,5.22,5.22,0,0,0,3,1.52c-1,3.64-1,4.41-.88,5.08a4.89,4.89,0,0,0-.83,1.66c-1.27,4.68-3.49,12.89-3.71,14a4.28,4.28,0,0,0,.9,3.55c2,2.49,6.76,2.68,8.15,2.68,3.24,0,5.33-1,6.2-2.91,1.54-3.39-1.62-5.93-3.52-7.45l-.69-.56c.18-.93.44-2.17.63-3.11,1-4.75,1.14-5.47.84-6.45a1.5,1.5,0,0,1,.11-.13C33.14,388.74,33.4,387.82,34.06,385.26ZM45.6,349.77c1.81,6,4.28,14.58,6.72,23.35H37.85C39.89,366.77,43.15,356.67,45.6,349.77Z"/>
          <path class="cls-2" d="M28,387.66c-.18-.63,6.5-23.41,7.9-27.57,2.53-7.52,3.51-18.11,4.76-20.76.9-1.89,3.35-1.11,8.5-1.53s9.34-1.81,10.73-1.39,1.25,3.34,3.06,11,13.1,45,13.94,49.32-6.27,12.12-8,12.54-2.64,2-4.31-4.6-17.14-64.22-18.67-64.5-11.85,33.16-14.49,41.1c-.66,2-1.4,5.6-1.79,6.11S28.15,388.28,28,387.66Z"/>
          <path class="cls-2" d="M28.91,390.68c.13.36-1.79,8.65-1.79,9.54,0,1.39,5.43,4,4.73,5.57s-8.81.7-8.44-1.12c.14-.7,1.68-6.49,3.66-13.73a1.21,1.21,0,0,1,1.27-.93C28.54,390,28.78,390.32,28.91,390.68Z"/>
          <path class="cls-2" d="M24.33,376.37c.13-2.62,6.21.35,9.74.35h23l.42,1.5s-20.73.24-25.21.53S24.07,381.89,24.33,376.37Z"/>
        </g>
        <g>
          <path class="cls-1" d="M84.1,298.5c-.25,5.09-.28,19.13-.3,30.42,0,15.11,0,15.11-.31,15.94C82.84,346.81,80.78,348,78,348a7.09,7.09,0,0,1-4.56-1.5c-1-.87-1.7-2.18-2.79-4.34a54.55,54.55,0,0,0-7-11.09c-4.4-5.21-27.17-27.66-37.68-37.78,0,.52,0,1,0,1.46.12,6.6.12,7.89-.84,9.23l0,0c1.31,1.61,1.38,4.72,1.46,9.3.08,3.86,0,8.44,0,11.18,0,.92,0,1.65,0,2.09a87.43,87.43,0,0,0,1.47,8.7c1.25,6.27,1.44,7.24.73,8.66A3.85,3.85,0,0,1,25.29,346a8.41,8.41,0,0,1-3.83-1.32l-1.11-.56-.2,0a9.54,9.54,0,0,1-1.15.08,4.46,4.46,0,0,1-4.4-3.06c-.7-2.08-.09-9.54.26-11a96.58,96.58,0,0,0,1.05-12.84c0-1.74,0-3.14-.07-4.29a21.93,21.93,0,0,1,.22-5.25,6.88,6.88,0,0,1,2-3.32,6.09,6.09,0,0,1-2.16-4.29c0-.68,0-3,0-7.69.06-6.78.14-16.08,0-19.75-.09-2-.27-4-.44-5.7-.41-4.25-.66-6.82.61-8.72a3.88,3.88,0,0,1,3.25-1.72c1.55,0,3.91,0,21.78,17.92,19.87,19.92,28.95,28.27,33.1,31.75.27-4.17.34-12.54-.35-29.25-.05-1.2-.09-2.13-.11-2.71a16.67,16.67,0,0,0-1.69-5.29c-1.1-2.51-2.3-5.27-1.86-8l6.54-5.61.31,0c3.46,0,6.2,2.37,7,6.05C85.08,266.52,84.44,291.58,84.1,298.5Z"/>
          <path class="cls-2" d="M74.21,260.54c1.25-2,5.43-2.39,6.3,1.73s.43,27.15,0,36.05-.22,44.74-.44,45.39-3,1.09-4.34,0-3.48-8-9.34-15S24.26,286.38,23,285.51s-.05,15.38-.74,16.36-2.61-.16-2.7-1.81.26-21.49,0-27.41-1.3-11-.43-12.27,11.82,9.07,19.48,16.75,34.89,35,37.79,35,1.16-32.77,1-37.83S72.18,263.76,74.21,260.54Z"/>
          <path class="cls-2" d="M19.58,308.64c.21-1,1.69-2.44,2.71-2.31S23,323.5,23,326.56s2.92,15.06,2.58,15.74-3.6-1.69-4.75-1.76-2.45.54-2.79-.48,0-7.6.34-9a95.52,95.52,0,0,0,1.16-13.7C19.51,312.51,19.23,310.22,19.58,308.64Z"/>
        </g>
        <g>
          <path class="cls-1" d="M84.4,427.75c-.13-3.27-.25-6.1-.54-8.23-.57-4.13-2.27-6.23-5-6.23h-.26c-1.76.1-4.48,1.38-17.15,8.06-4.84,2.55-11.29,5.95-13.64,6.91-1.83-.93-6.1-3.91-8.51-5.59-5.32-3.71-6.7-4.6-8.05-4.85a12.25,12.25,0,0,0-2.13-.2,40.11,40.11,0,0,0-7.44,1.14c-5.43,1.12-8,2.43-10.14,5.17-1.4,1.8-1.27,4.09-1,8.68a131.55,131.55,0,0,1-.24,21.47,198.92,198.92,0,0,1-3.92,23.48C5,484,4.43,486.62,5,488.64c.67,2.54,8.21,15.8,13.65,15.8a4.55,4.55,0,0,0,1-.12c2.18-.54,5.84-1.44,11.86-34.85a258.36,258.36,0,0,0,3.34-33.1,69.64,69.64,0,0,1,4.5,5.56l.52.69c1.55,2,4.17,2.26,5.6,2.26a7.06,7.06,0,0,0,4.39-1.3,35.46,35.46,0,0,0,4.26-5l1-1.26a19.22,19.22,0,0,1,4-2.89c1,6.53,3,15.59,5.32,25.68,1.65,7.26,3.36,14.76,4.83,22.06,3.47,17.24,6,22.22,11.09,22.22H81c5.25,0,9.32-11.3,9.46-13.06.22-2.82-3.48-38.9-5-49.6C84.78,437,84.58,432.08,84.4,427.75Z"/>
          <path class="cls-2" d="M14.34,426.16c1.33-1.69,2.79-2.78,8-3.86s6.49-1.24,8.19-.93S45.41,432,47.72,432s28.44-15,31.06-15.15,1.4,13.14,3.1,25.34,5.09,46.83,4.94,48.84S82.65,500.8,81,500.8s-4,1.39-8.19-19.31S62.4,437.83,62.1,428.71c0,0-7.78,3.82-9.82,6.42a58.5,58.5,0,0,1-4.7,5.66c-.86.71-4,.71-4.88-.39S36.17,431.11,31.45,429c0,0-.16,21.39-3.49,39.84s-6.92,31.44-9.17,32-9.6-10.24-10.35-13.09,3.75-15.9,5.4-33.3S13,427.87,14.34,426.16Z"/>
        </g>
        <g>
          <path class="cls-1" d="M60.32,527.05c0-27.59-1.32-28.25-3.71-29.43a9.19,9.19,0,0,0-4.2-.69c-1.25,0-2.69.07-4.2.15-1.31.07-2.66.14-3.89.16-5.17.09-6.88,1.32-8.57,3.87-1.12,1.71-1.12,3.65-.58,16.42.3,7.23.72,17.13.72,27.86v6.44c0,8.85,0,14.7.22,18.47.19,3,.51,8.1,4.8,8.61a4.68,4.68,0,0,0,.55,0c3.76,0,16.89-7,18.79-15.54,1-4.7.76-12.44.44-21.4C60.5,537.15,60.32,532.12,60.32,527.05Z"/>
          <path class="cls-2" d="M38.75,503.1c1-1.44,1.47-2.19,5.63-2.26s9.29-.66,10.63,0,1.71,11.79,1.71,26.21,1.47,29,0,35.57-13.32,13-15.4,12.71-1.83-7.33-1.83-29.94S37.69,504.71,38.75,503.1Z"/>
        </g>
      </g>
    </g>
  </g>
</svg>
