<svg width="48" height="48" viewBox="0 0 48 48" fill="none" xmlns="http://www.w3.org/2000/svg">
<path d="M15.88 11.59C15.88 11.52 15.79 11.54 15.72 11.59L15.95 11.79C15.9148 11.7281 15.8911 11.6603 15.88 11.59V11.59Z" fill="#7CC5A6"/>
<path d="M16.2 11.9799H16.25L16.16 11.9299L16.2 11.9799Z" fill="#7CC5A6"/>
<path d="M16.25 11.99L16.39 12.07C16.3587 12.0242 16.335 11.9735 16.32 11.92C16.32 11.92 16.32 12 16.25 11.99V11.99Z" fill="#7CC5A6"/>
<path d="M16.99 11.3801C17.05 11.3801 16.88 11.56 16.99 11.6C17.2245 11.6977 17.4435 11.8291 17.64 11.99C17.76 11.99 17.7 12.3301 17.81 12.3801C17.92 12.4301 18.73 12.82 18.45 12.53C18.0815 12.1685 17.6871 11.8343 17.27 11.53C16.9 11.28 16.48 11.12 16.09 10.9C15.9958 10.8284 15.9057 10.7516 15.82 10.67C15.93 10.78 16.02 10.92 16.13 11.05C16.24 11.18 16.67 11.1801 16.99 11.3801Z" fill="#7CC5A6"/>
<path d="M13.91 10.2H14.09C14.1571 10.3107 14.2489 10.4044 14.3582 10.4738C14.4674 10.5432 14.5912 10.5864 14.72 10.6V10.44C14.58 10.38 14.54 10.44 14.62 10.54C14.4529 10.2956 14.2159 10.1074 13.94 10C13.9 10.06 13.86 10.13 13.91 10.2Z" fill="#7CC5A6"/>
<path d="M35.43 24.29L35.05 24.55C35.1266 24.5183 35.2075 24.4981 35.29 24.49C35.43 24.45 35.43 24.38 35.43 24.29Z" fill="#7CC5A6"/>
<path d="M34.62 24.84L34.57 24.9001L34.69 24.8L34.62 24.84Z" fill="#7CC5A6"/>
<path d="M34.57 24.9L34.43 25.06C34.5007 25.0187 34.5788 24.9915 34.66 24.98C34.56 24.99 34.52 24.97 34.57 24.9Z" fill="#7CC5A6"/>
<path d="M34.98 25.7701C34.98 25.8401 34.8 25.6401 34.72 25.7701C34.5235 26.0553 34.3027 26.323 34.06 26.5701C33.98 26.7101 33.61 26.6601 33.54 26.8201C33.32 27.1301 32.9 28.01 33.27 27.61C33.81 27 34.18 26.61 34.71 26.11C35.1041 25.6492 35.5247 25.2117 35.97 24.8C36.099 24.6943 36.2442 24.6098 36.3999 24.55C36.1844 24.6224 35.9767 24.7162 35.78 24.83C35.48 24.97 35.35 25.4501 34.98 25.7701Z" fill="#7CC5A6"/>
<path d="M38.52 22.81L38.33 22.98C37.9615 23.0063 37.611 23.15 37.33 23.3899H37.54C37.73 23.2899 37.72 23.22 37.54 23.25C37.9704 23.2091 38.3885 23.0834 38.77 22.88C38.66 22.86 38.64 22.79 38.52 22.81Z" fill="#7CC5A6"/>
<path d="M38.93 22.8L38.71 22.92L38.92 22.79L38.93 22.8Z" fill="#7CC5A6"/>
<path d="M33.5 26.52C33.2185 26.8404 32.8793 27.105 32.5 27.3C32.68 27.2 32.71 27.3 32.57 27.43H32.36C32.5437 27.1005 32.8273 26.8379 33.17 26.68L33.28 26.46C33.39 26.4 33.44 26.46 33.5 26.46L33.67 26.29C33.4201 26.3505 33.1808 26.4482 32.96 26.58C32.19 27.32 31.52 28.06 30.87 28.79C30.87 28.88 30.87 28.96 30.79 29.02C30.7137 29.0479 30.6427 29.0884 30.58 29.14L30.3 29.47L30.22 29.6C30.22 29.68 30.22 29.69 30.3 29.67C30.2266 29.7063 30.1592 29.7535 30.1 29.81L30.2 29.64V29.57C29.98 29.82 29.78 30.07 29.59 30.33L29.48 30.51C29.37 30.72 29.26 30.93 29.08 30.98L28.98 31.12L28.59 31.65C28.34 31.99 28.11 32.32 27.91 32.65C27.71 32.98 27.62 33.07 27.5 33.27C27.22 33.71 26.98 34.15 26.76 34.58V34.34C26.61 35.34 26.11 33.7 26.54 32.68C26.7633 32.1249 26.8189 31.5164 26.7 30.93L26.84 30.26C26.99 29.42 27.22 28.6 27.43 27.8C28.35 24.64 28.92 21.62 30.78 18.8C31.45 17.71 32.41 15.6 33.03 14.55C33.5 12.94 32.21 13.12 32.11 13.16C30.85 13.62 30.79 14.54 29.4 16.24C30.32 15.07 29.4 17.42 28.4 18.48C26.76 20.01 26.51 23.01 25.73 25.36C25.67 25.53 25.64 25.72 25.59 25.89C25.0109 23.4735 24.1727 21.1266 23.09 18.89C22.7666 18.2851 22.363 17.7268 21.89 17.23C21.66 16.84 21.51 16.37 21.33 16.04C21.0501 15.5863 20.7142 15.1697 20.33 14.8C20.65 15.24 20.93 15.53 21.26 16.03C21.46 16.37 20.86 15.94 20.66 15.76C20.46 15.58 20.66 15.4 20.58 15.34C20.4305 15.1376 20.2479 14.9618 20.04 14.82C19.93 14.75 20.14 14.63 20.04 14.6C19.79 14.33 19.38 14.29 19.3 14.06L19.1 13.62C19.0526 13.5283 18.9919 13.444 18.92 13.37L18.76 13.26L17.48 12.37C17.7074 12.5657 17.874 12.8225 17.96 13.11C17.91 12.98 17.96 12.95 18.08 13.05V13.21C17.86 13.07 17.64 12.93 17.6 12.63L17.43 12.56C17.43 12.48 17.43 12.43 17.49 12.37L17.36 12.26C17.3901 12.4472 17.437 12.6312 17.5 12.81C17.971 13.3152 18.4054 13.8532 18.8 14.42C18.86 14.42 18.93 14.42 18.95 14.5C18.9348 14.559 18.9348 14.621 18.95 14.68L19.1 14.92L19.17 14.99C19.17 14.99 19.24 14.99 19.25 14.93C19.236 14.9858 19.236 15.0442 19.25 15.1L19.15 15.01C19.26 15.2 19.39 15.38 19.49 15.57L19.58 15.68C19.69 15.8 19.8 15.91 19.76 16.06V16.16C19.84 16.31 19.93 16.45 20 16.6L20.43 17.49C21.3291 19.416 22.0878 21.4045 22.7 23.44C23.0092 24.5705 23.2463 25.7195 23.41 26.88C23.61 28.29 23.97 29.59 24.16 30.95C23.6403 30.4726 23.1526 29.9615 22.7 29.42C22.4623 29.1198 22.1942 28.8451 21.9 28.6C20.5 26.85 18.58 25.92 16.56 24.78C16.0408 24.539 15.4812 24.3966 14.91 24.36C14.5682 24.2219 14.2344 24.065 13.91 23.89C13.7004 23.802 13.4828 23.7351 13.26 23.69C13.0503 23.6751 12.8397 23.6751 12.63 23.69C13.0511 23.7399 13.4663 23.8303 13.87 23.96C14.18 24.07 13.55 24.16 13.33 24.15C13.11 24.14 13.18 23.86 13.07 23.89C12.8611 23.8601 12.6489 23.8601 12.44 23.89C12.33 23.89 12.44 23.69 12.36 23.71C12.06 23.71 11.76 23.92 11.6 23.81L11.25 23.59C11.1769 23.5563 11.0995 23.5327 11.02 23.52H10.86C10.45 23.6 9.99002 23.66 9.58002 23.7C9.82784 23.7072 10.0666 23.795 10.26 23.95C10.16 23.88 10.19 23.82 10.26 23.83L10.33 23.96C10.11 23.96 9.88998 24.03 9.72998 23.83L9.58002 23.89C9.52002 23.84 9.57997 23.77 9.52997 23.7H9.39001C9.49464 23.8257 9.61572 23.9367 9.75 24.03L10.59 24.16C10.87 24.23 11.12 24.32 11.38 24.4C11.38 24.4 11.48 24.32 11.52 24.4C11.5482 24.444 11.5818 24.4843 11.62 24.52L11.84 24.59H11.93C11.98 24.59 11.98 24.53 11.93 24.49C11.9593 24.5306 11.9968 24.5647 12.04 24.59H11.86L12.36 24.76H12.48C12.61 24.76 12.75 24.76 12.78 24.91H12.87L13.23 25.08L13.95 25.44C15.495 26.1834 16.9509 27.0992 18.29 28.17C18.65 28.49 19 28.82 19.29 29.17C19.58 29.52 19.91 29.87 20.2 30.22C21.3 31.65 22.66 32.69 23.2 34.52C23.4161 35.0221 23.6878 35.4985 24.01 35.94C24.01 36.4 24.01 36.85 24.01 37.26L24.51 37.35L24.89 37.45L25.19 37.55C25.28 37.55 25.38 37.65 25.41 37.61C25.4913 37.5846 25.5751 37.5679 25.66 37.56C25.7303 37.5487 25.798 37.525 25.86 37.49C25.9702 37.4603 26.0749 37.4131 26.17 37.35C26.34 37.22 26.67 37.04 26.94 36.82C27.21 36.6 27.21 36.15 27.33 35.82C27.62 35.24 27.9 34.76 28.19 34.27C28.34 34.04 28.49 33.77 28.62 33.58L28.97 33.05L29.46 32.26L29.83 31.61C30.01 31.31 30.16 31.01 30.31 30.71L29.78 31.58L28.99 32.94C28.55 33.66 29.13 32.14 29.32 31.72C29.4 31.48 29.73 31.49 29.79 31.31C29.9696 31.0152 30.1203 30.7038 30.24 30.38C30.29 30.23 30.47 30.38 30.5 30.31C30.76 29.89 30.76 29.4 31.01 29.19C31.1758 29.0347 31.3493 28.8878 31.53 28.75C31.6333 28.6599 31.7272 28.5594 31.81 28.45L31.94 28.21C32.3135 27.5955 32.7243 27.0044 33.17 26.44L33.5 26.52ZM20.5 17.15C20.5621 17.2203 20.6085 17.3031 20.636 17.3927C20.6636 17.4824 20.6718 17.5769 20.66 17.67C20.589 17.6061 20.5388 17.5225 20.5156 17.4299C20.4925 17.3372 20.4975 17.2398 20.53 17.15H20.5ZM13.95 25.25C14.0259 25.2592 14.0981 25.288 14.1595 25.3336C14.2209 25.3792 14.2693 25.44 14.3 25.51C14.14 25.55 14.05 25.4 13.98 25.25H13.95ZM27.82 32.97C27.94 32.58 28.05 32.58 28.21 32.55C28.14 32.79 27.97 32.99 27.85 32.97H27.82Z" fill="#7CC5A6"/>
<path d="M8.06 24.11H8.31L8.19 24.02C8.19 24.02 8.11 24.06 8.06 24.11Z" fill="#7CC5A6"/>
<path d="M8.63 24.16H8.77002C8.72503 24.1417 8.68416 24.1144 8.64996 24.08C8.64996 24.08 8.67 24.14 8.63 24.16Z" fill="#7CC5A6"/>
<path d="M9.84998 23.5299C10.07 23.5299 10.67 23.2599 10.35 23.2299C9.85998 23.2299 9.53998 23.2299 9.09998 23.1799C8.73848 23.2175 8.38063 23.2844 8.02997 23.3799C7.93391 23.3953 7.83605 23.3953 7.73999 23.3799L8.12 23.4999C8.3 23.5799 8.54997 23.2599 8.83997 23.2599C8.88997 23.2599 8.84001 23.4799 8.95001 23.4399C9.14701 23.3766 9.3531 23.3462 9.56 23.3499C9.65 23.2799 9.75998 23.5699 9.84998 23.5299Z" fill="#7CC5A6"/>
<path d="M6.83997 23.9C6.63059 23.7705 6.38548 23.711 6.14001 23.73C6.14001 23.8 6.13997 23.87 6.21997 23.91L6.34998 23.83C6.43538 23.8971 6.53817 23.9384 6.64624 23.949C6.75431 23.9596 6.86319 23.9392 6.96002 23.89L6.87 23.77C6.75 23.78 6.73997 23.84 6.83997 23.9Z" fill="#7CC5A6"/>
</svg>
