<svg width="48" height="48" viewBox="0 0 48 48" fill="none" xmlns="http://www.w3.org/2000/svg">
<path d="M32.4874 32.5699C32.5768 32.5557 32.6679 32.5557 32.7573 32.5699C32.8018 32.5665 32.8451 32.5541 32.8846 32.5335C32.9242 32.5129 32.9591 32.4845 32.9874 32.45L32.4874 32.5699Z" fill="#C0C5C2"/>
<path d="M31.9373 32.65L31.8673 32.69L32.0273 32.64L31.9373 32.65Z" fill="#C0C5C2"/>
<path d="M31.8674 32.69L31.6074 32.76C31.697 32.7491 31.7876 32.7491 31.8773 32.76C31.8173 32.76 31.7773 32.7 31.8773 32.66L31.8674 32.69Z" fill="#C0C5C2"/>
<path d="M31.8773 32.79L32.0474 32.85C31.9949 32.8197 31.9372 32.7994 31.8773 32.79Z" fill="#C0C5C2"/>
<path d="M31.7873 33.6601C31.7073 33.6601 31.6873 33.46 31.5173 33.55C31.145 33.6954 30.7601 33.8059 30.3673 33.8801C30.1973 33.9601 29.8873 33.72 29.7173 33.79C29.3073 33.92 28.2473 34.3101 28.8873 34.2501C29.8873 34.1301 30.4573 33.99 31.3073 33.83C31.9873 33.63 32.6373 33.4001 33.3073 33.1501C33.4933 33.095 33.6842 33.0582 33.8773 33.04L33.0973 33.11C32.7273 33.12 32.3573 33.4901 31.7873 33.6601Z" fill="#C0C5C2"/>
<path d="M36.2874 31.21C36.2745 31.2923 36.2438 31.3708 36.1973 31.44C35.8404 31.5852 35.5041 31.7768 35.1973 32.01H35.4174C35.6274 31.9 35.6174 31.83 35.4174 31.87C35.6519 31.853 35.8787 31.7784 36.0775 31.6528C36.2764 31.5272 36.4412 31.3545 36.5573 31.15C36.5114 31.1323 36.4613 31.1286 36.4133 31.1393C36.3652 31.1499 36.3215 31.1745 36.2874 31.21V31.21Z" fill="#C0C5C2"/>
<path d="M35.2673 31.28C35.2673 31.28 35.3673 31.28 35.3773 31.28C35.4588 31.1859 35.5572 31.1079 35.6674 31.05C35.7155 31.0257 35.7657 31.0056 35.8173 30.99V30.99C35.8632 30.9777 35.9115 30.9777 35.9573 30.99C36.0922 31.0076 36.2286 30.9717 36.3373 30.89C36.4092 30.8405 36.4594 30.7653 36.4774 30.68C36.4969 30.496 36.4737 30.3101 36.4095 30.1366C36.3453 29.9631 36.2419 29.8069 36.1074 29.68C35.8663 29.4401 35.5855 29.2438 35.2773 29.0999C34.6273 28.7799 33.8174 28.54 32.6674 28.05C33.8674 28.53 32.4573 28.43 31.0773 28.05L31.2374 27.96C31.3774 27.9011 31.521 27.851 31.6674 27.81C31.4774 27.86 31.2773 27.89 31.0673 27.93C31.0138 27.945 30.9632 27.9686 30.9174 28C30.6331 27.9182 30.3556 27.8145 30.0873 27.69H30.2073H30.0773C30.0773 27.69 30.0073 27.6399 30.0773 27.5999H29.9774C27.8074 26.4199 24.5374 27.06 21.7874 26.97C21.0874 26.97 20.3473 27.0399 19.5173 27.0999C18.7271 27.1277 17.9391 27.2011 17.1573 27.3199L17.0273 27.25C16.8547 27.1766 16.7031 27.0614 16.5861 26.9147C16.4692 26.7681 16.3905 26.5946 16.3574 26.41C16.3977 26.2386 16.4762 26.0786 16.587 25.9418C16.6978 25.805 16.8381 25.695 16.9973 25.62C17.2704 25.4715 17.5546 25.3444 17.8473 25.24C18.1733 25.1195 18.5075 25.0225 18.8473 24.95C19.5046 24.7909 20.1733 24.6839 20.8473 24.63C22.2073 24.51 23.5173 24.39 24.8473 24.38C26.1795 24.3274 27.5096 24.5276 28.7673 24.97C29.2673 25.14 29.9673 25.2999 30.5973 25.4799C31.0476 25.5836 31.477 25.7628 31.8674 26.0099H31.9473C32.0773 25.9399 32.0874 25.8899 32.1674 25.8499L32.3574 25.77H32.6774C32.7864 25.7763 32.8953 25.756 32.9946 25.7107C33.094 25.6654 33.1807 25.5965 33.2473 25.5099C33.3012 25.3663 33.3251 25.2132 33.3173 25.06C33.2932 24.9198 33.2459 24.7846 33.1774 24.66C33.0384 24.4224 32.8425 24.223 32.6074 24.08C32.1741 23.8158 31.7267 23.5755 31.2673 23.36C31.5666 23.1972 31.8453 22.9991 32.0973 22.77C32.2265 22.6547 32.3407 22.5237 32.4373 22.38C32.5494 22.2574 32.6376 22.115 32.6973 21.96C32.8305 21.6417 32.9116 21.304 32.9373 20.96C32.9179 20.5693 32.8129 20.1877 32.6298 19.8421C32.4466 19.4965 32.1897 19.1953 31.8773 18.96C31.5383 18.6993 31.173 18.4747 30.7874 18.2899L30.4973 18.15L30.2974 18.06L29.9073 17.91C29.748 17.8529 29.5841 17.8094 29.4174 17.78C29.7426 17.5006 30.0108 17.1611 30.2073 16.78C30.2641 16.6134 30.2801 16.4357 30.254 16.2617C30.2279 16.0877 30.1605 15.9225 30.0573 15.78C30.0008 15.7129 29.9276 15.6619 29.8451 15.632C29.7626 15.6022 29.6737 15.5946 29.5873 15.61C29.3742 15.645 29.1661 15.7055 28.9673 15.7899C28.4973 15.9499 28.3673 15.91 28.2173 16.03C27.9762 16.2179 27.6712 16.3041 27.3674 16.27C27.6674 16.27 27.6673 16.43 27.4573 16.58C27.3053 16.6677 27.1329 16.7139 26.9573 16.7139C26.7818 16.7139 26.6094 16.6677 26.4573 16.58C26.2444 16.452 26.006 16.3723 25.759 16.3463C25.5119 16.3204 25.2622 16.349 25.0273 16.43C24.5532 16.5982 24.0456 16.6496 23.5474 16.58C23.3074 16.52 23.0574 16.58 22.7874 16.5L22.1674 16.3C22.0974 16.3 22.1674 16.3 22.1674 16.3C22.1506 16.3096 22.1317 16.3147 22.1124 16.3147C22.0931 16.3147 22.074 16.3096 22.0573 16.3C21.9873 16.3 22.0573 16.19 22.0573 16.18C21.9673 16.18 22.3773 15.79 22.6373 15.59C22.878 15.5206 23.1269 15.4836 23.3773 15.4799C23.6762 15.4049 23.965 15.2941 24.2374 15.15C23.9274 15.23 23.7173 15.33 23.3873 15.43C23.0573 15.53 23.4773 15.09 23.6273 15C23.7773 14.91 23.8373 15.18 23.8873 15.12C24.0398 15.0687 24.182 14.9909 24.3073 14.89C24.3673 14.83 24.3773 15.0699 24.4073 15.0399C24.6173 14.9699 24.7674 14.65 24.9174 14.71L25.2073 14.81C25.2669 14.8199 25.3277 14.8199 25.3873 14.81L25.5073 14.75C25.8254 14.6049 26.1619 14.504 26.5073 14.45V14.45C26.3058 14.4523 26.1103 14.3812 25.9573 14.25C26.0373 14.31 26.0173 14.38 25.9573 14.38L25.8873 14.2599C26.0573 14.1999 26.2373 14.15 26.3773 14.34L26.4973 14.27C26.5473 14.27 26.4973 14.38 26.4973 14.45H26.6074C26.5288 14.3311 26.4307 14.2263 26.3173 14.14C25.8273 14.14 25.3774 14.08 24.9274 14.08C24.9274 14.08 24.8673 14.18 24.8273 14.15C24.7939 14.1191 24.757 14.0923 24.7173 14.0699H24.5173H24.4473C24.4407 14.0765 24.4354 14.0842 24.4318 14.0928C24.4282 14.1014 24.4263 14.1107 24.4263 14.12C24.4263 14.1293 24.4282 14.1385 24.4318 14.1471C24.4354 14.1556 24.4407 14.1634 24.4473 14.17C24.4166 14.1406 24.3787 14.1199 24.3373 14.11H24.4373H23.9973H23.9073C23.7973 14.11 23.6974 14.2 23.6174 14.11H23.5374H23.1973C22.9773 14.11 22.7473 14.17 22.5173 14.21C21.884 14.3085 21.2739 14.522 20.7173 14.84C20.3964 14.989 20.1192 15.2181 19.9125 15.5054C19.7058 15.7926 19.5766 16.1283 19.5374 16.4799C19.5589 16.8269 19.7002 17.1557 19.9373 17.41C20.124 17.6098 20.3358 17.7845 20.5673 17.93L20.3773 17.9799C19.9673 18.1699 19.5774 18.3699 19.1774 18.5999L18.8273 18.69H19.3273C19.5573 18.69 19.7473 18.32 20.0873 18.18C20.1373 18.18 20.1773 18.38 20.2773 18.31C20.4323 18.2231 20.5926 18.1463 20.7573 18.08C20.9074 18.1751 21.0646 18.2587 21.2274 18.33H21.2874L21.4874 18.41L21.3574 18.49C21.2774 18.49 21.2674 18.4 21.2374 18.33L21.0773 18.38C21.2414 18.4711 21.416 18.5416 21.5973 18.59C21.6973 18.59 21.7973 18.59 21.8973 18.59L22.5073 18.78C23.3027 18.9696 24.1254 19.017 24.9373 18.92L26.2173 18.81L27.0673 18.9799C27.8773 19.1572 28.6703 19.4049 29.4373 19.72C29.7497 19.8336 30.0457 19.9883 30.3173 20.18C30.4418 20.2607 30.5467 20.368 30.6246 20.4943C30.7024 20.6205 30.7512 20.7625 30.7673 20.91C30.733 21.0488 30.6662 21.1774 30.5723 21.2852C30.4784 21.393 30.3601 21.4769 30.2274 21.53C30.0511 21.6229 29.8626 21.6902 29.6674 21.7299C29.4105 21.8003 29.1501 21.8571 28.8873 21.9C28.3443 21.9778 27.7958 22.0112 27.2473 22H26.2473C25.5073 22 24.7773 22 24.0573 21.93C23.01 21.8835 21.9857 21.6069 21.0573 21.12C20.6973 20.93 20.1673 20.7599 19.6973 20.5699C19.4673 20.4799 19.2674 20.38 19.1074 20.3L18.8574 20.15L18.7773 20.21L18.6174 20.31C18.5616 20.3505 18.5011 20.3841 18.4373 20.41H18.2974H18.0773C17.9712 20.3984 17.8637 20.4093 17.7621 20.4421C17.6604 20.4748 17.5668 20.5286 17.4874 20.5999C17.4127 20.7045 17.3653 20.826 17.3495 20.9535C17.3338 21.081 17.3503 21.2104 17.3973 21.33C17.4825 21.5494 17.6238 21.7425 17.8073 21.89C18.1506 22.1648 18.5077 22.4218 18.8773 22.66C18.3189 22.7852 17.7707 22.9524 17.2374 23.16C16.9774 23.25 16.7073 23.4 16.4473 23.52L16.0173 23.77C15.8147 23.8919 15.6238 24.0325 15.4473 24.19C15.2542 24.3235 15.0823 24.4853 14.9373 24.67C14.7801 24.8324 14.6486 25.0179 14.5474 25.22L14.3973 25.52L14.3273 25.83C14.282 26.0442 14.2519 26.2614 14.2374 26.4799C14.3001 26.9481 14.475 27.3941 14.7473 27.78H14.5973C14.3273 27.87 14.0673 27.94 13.7773 28.05C13.3078 28.2159 12.8583 28.4339 12.4373 28.7C12.057 28.8796 11.7272 29.151 11.4776 29.4896C11.228 29.8282 11.0664 30.2235 11.0073 30.64C10.9976 30.7397 10.9976 30.8402 11.0073 30.94L11.0773 31.24L11.2274 31.81L11.5773 32.31L12.0573 32.74C12.2431 32.8849 12.4444 33.009 12.6573 33.11C12.8645 33.2377 13.0819 33.3481 13.3073 33.44C13.4249 33.4926 13.5451 33.5394 13.6674 33.58L13.9673 33.69L14.3973 33.8199C14.9673 33.9899 15.5273 34.12 16.0973 34.25C17.1955 34.4191 18.3093 34.4628 19.4174 34.38C20.1574 34.38 20.9273 34.59 21.5273 34.62C22.3829 34.658 23.2401 34.6145 24.0873 34.49C23.2273 34.49 22.5973 34.57 21.6273 34.56C20.9873 34.56 22.0973 34.29 22.5173 34.22C22.6973 34.22 22.9773 34.45 23.1573 34.4C23.5546 34.3876 23.9497 34.3374 24.3373 34.25C24.5173 34.19 24.4973 34.43 24.5873 34.41C25.1673 34.34 25.5873 34.04 25.9673 34.09L26.7473 34.17C26.9036 34.185 27.061 34.185 27.2173 34.17L27.5273 34.09L29.9274 33.52C29.4554 33.6148 28.9693 33.6148 28.4973 33.52C28.7173 33.52 28.6873 33.62 28.4973 33.66L28.2974 33.55C28.6972 33.4156 29.1264 33.3949 29.5374 33.49L29.7874 33.38C29.9274 33.38 29.9273 33.47 29.9673 33.53H30.2374C29.9626 33.4477 29.6817 33.3875 29.3973 33.3499C28.2776 33.4642 27.1528 33.5209 26.0273 33.52C25.9473 33.52 25.8873 33.6299 25.7673 33.5999C25.6871 33.5643 25.6033 33.5375 25.5173 33.52H25.0374H24.8773C24.7873 33.52 24.8173 33.58 24.8773 33.62C24.7982 33.5835 24.7138 33.5599 24.6273 33.55H24.8373H24.8973H24.9673C24.6073 33.55 24.2473 33.55 23.8873 33.55H23.6674C23.4364 33.6097 23.1916 33.5848 22.9774 33.4799H22.7874H22.7173L21.8973 33.41C21.3673 33.36 20.8274 33.31 20.2874 33.24C18.5978 33.0335 16.9263 32.6992 15.2874 32.24L14.6873 32.05L14.2374 31.87C13.9598 31.7533 13.7057 31.5873 13.4874 31.38C13.4344 31.326 13.3929 31.2618 13.3654 31.1913C13.3379 31.1209 13.3249 31.0456 13.3273 30.97C13.3535 30.8189 13.4356 30.6832 13.5573 30.59C13.7989 30.3985 14.0734 30.2528 14.3674 30.16L14.5973 30.09L14.9274 29.99C15.1574 29.94 15.3774 29.87 15.6174 29.83C16.0774 29.73 16.5473 29.66 17.0073 29.59L17.7974 29.5099L18.2573 29.66C19.1182 29.8192 19.9984 29.8461 20.8674 29.74C21.4374 29.74 22.0274 29.91 22.4874 29.92C23.1394 29.9381 23.7912 29.8743 24.4274 29.7299C23.7674 29.7899 23.2874 29.86 22.5374 29.87C22.0474 29.87 22.8973 29.5899 23.2173 29.5099C23.3573 29.4599 23.5673 29.73 23.7073 29.67C24.0132 29.6383 24.3148 29.5746 24.6074 29.4799C24.7374 29.4199 24.7373 29.66 24.8073 29.63C25.0583 29.5631 25.3001 29.4657 25.5273 29.34C27.2185 29.3758 28.8983 29.6244 30.5273 30.08C31.2073 30.27 32.1774 30.45 33.1074 30.66C33.8435 30.8047 34.5589 31.0398 35.2374 31.36C35.2515 31.335 35.2616 31.3081 35.2673 31.28V31.28ZM22.8473 14.28C22.7923 14.3157 22.728 14.3347 22.6624 14.3347C22.5967 14.3347 22.5324 14.3157 22.4774 14.28C22.5774 14.13 22.7273 14.1999 22.8473 14.2899V14.28ZM26.8473 18.67H27.0873C27.1987 18.6967 27.2996 18.7559 27.3773 18.84C27.288 18.8723 27.1905 18.8741 27.1001 18.8451C27.0096 18.8162 26.9313 18.7581 26.8773 18.68L26.8473 18.67ZM20.7874 33.3499C20.4919 33.3659 20.1978 33.3002 19.9373 33.16C20.0899 33.1328 20.2464 33.1365 20.3976 33.1709C20.5487 33.2052 20.6914 33.2695 20.8173 33.36L20.7874 33.3499Z" fill="#C0C5C2"/>
<path d="M30.7374 27.4C30.8174 27.4 30.8473 27.33 30.8873 27.26L30.5273 27.38C30.598 27.3723 30.6695 27.3791 30.7374 27.4V27.4Z" fill="#C0C5C2"/>
<path d="M30.0873 27.4899L30.1973 27.4299L30.0873 27.4899Z" fill="#C0C5C2"/>
<path d="M33.2773 25.85C33.2073 25.85 33.1573 25.85 33.0873 25.91V26.1C32.7973 26.23 32.6673 26.46 32.4473 26.69H32.6273C32.7573 26.56 32.7273 26.5 32.6273 26.56C32.7866 26.5059 32.9298 26.4125 33.0434 26.2884C33.157 26.1643 33.2375 26.0134 33.2773 25.85Z" fill="#C0C5C2"/>
<path d="M19.6674 19.1C19.5974 19.1 19.5774 19.15 19.5474 19.21L19.8373 19.14C19.7789 19.1361 19.7214 19.1226 19.6674 19.1Z" fill="#C0C5C2"/>
<path d="M20.1973 19.0399L20.3474 18.97C20.2912 18.9803 20.2336 18.9803 20.1774 18.97C20.1774 18.97 20.2474 19.0299 20.1774 19.0699L20.1973 19.0399Z" fill="#C0C5C2"/>
<path d="M17.7573 20.18V20.02C18.0173 19.94 18.1073 19.7599 18.2773 19.5699H18.1174C18.0174 19.6699 18.0474 19.73 18.1774 19.7C18.0333 19.7156 17.8979 19.7762 17.7902 19.8731C17.6825 19.97 17.608 20.0984 17.5773 20.24C17.6373 20.2 17.6973 20.22 17.7573 20.18Z" fill="#C0C5C2"/>
<path d="M27.9373 14.16L27.7274 14.0699C27.7618 14.1041 27.789 14.145 27.8073 14.19C27.8073 14.19 27.8873 14.19 27.9373 14.16Z" fill="#C0C5C2"/>
<path d="M27.4573 14H27.3373C27.3743 14.0221 27.4053 14.053 27.4274 14.09C27.4274 14.09 27.4173 14.01 27.4573 14Z" fill="#C0C5C2"/>
<path d="M26.4074 14.62C26.2274 14.62 25.8074 14.96 26.0474 14.96C26.2874 14.96 26.6273 14.96 26.9373 14.96C27.201 14.9086 27.4688 14.8819 27.7374 14.88C27.8028 14.9069 27.8636 14.9441 27.9174 14.99C27.8515 14.9126 27.7777 14.8422 27.6974 14.78C27.5874 14.67 27.3373 14.91 27.1273 14.91C27.1273 14.91 27.1273 14.7 27.1273 14.74C26.9792 14.7921 26.8243 14.8225 26.6674 14.83C26.5474 14.85 26.4774 14.57 26.4074 14.62Z" fill="#C0C5C2"/>
<path d="M28.8073 14.8701C28.8529 15.0741 28.9131 15.2746 28.9874 15.4701C29.0574 15.4701 29.1273 15.47 29.1473 15.35L29.0173 15.26C29.1073 15.01 28.8873 14.8701 28.7173 14.8101V14.95C28.7673 15.01 28.8373 14.9701 28.8073 14.8701Z" fill="#C0C5C2"/>
<path d="M29.0273 15.58L28.9774 15.47L29.0273 15.58Z" fill="#C0C5C2"/>
</svg>
