<svg width="48" height="48" viewBox="0 0 48 48" fill="none" xmlns="http://www.w3.org/2000/svg">
<path d="M42.24 16.8431C42.24 16.9731 42.39 16.9631 42.52 16.9831C42.4191 16.8202 42.3089 16.6633 42.19 16.5131C42.2338 16.6172 42.251 16.7306 42.24 16.8431V16.8431Z" fill="#577ABD"/>
<path d="M41.69 15.9731L41.85 16.0831L41.78 16.0031L41.69 15.9731Z" fill="#577ABD"/>
<path d="M40.95 15.4631C41.0909 15.5851 41.2414 15.6955 41.4 15.7931C41.2893 15.6377 41.1315 15.522 40.95 15.4631V15.4631Z" fill="#577ABD"/>
<path d="M41.57 16.1031C41.57 16.0131 41.57 15.9331 41.72 15.9731L41.43 15.7931C41.4971 15.8859 41.5447 15.9914 41.57 16.1031Z" fill="#577ABD"/>
<path d="M41.57 16.1031C41.57 16.1931 41.57 16.3131 41.57 16.3631C41.58 16.2768 41.58 16.1895 41.57 16.1031Z" fill="#577ABD"/>
<path d="M40.24 17.2131C40.17 17.2131 40.48 16.8531 40.31 16.8531C39.99 16.7731 39.71 16.8531 39.49 16.7931C39.43 16.7931 39.39 16.7431 39.34 16.6231C39.29 16.5031 39.19 16.3531 39.11 16.4031C38.8939 16.5165 38.7268 16.705 38.64 16.9331C38.56 17.1531 38.57 17.3131 38.7 17.2531C38.8798 17.1542 39.0766 17.0898 39.28 17.0631C39.4959 17.0475 39.7122 17.0853 39.91 17.1731C40.4848 17.2915 41.0148 17.5687 41.44 17.9731C41.5519 18.1217 41.6396 18.2871 41.7 18.4631C41.6402 18.2115 41.5634 17.9642 41.47 17.7231C41.37 17.3631 40.57 17.3631 40.24 17.2131Z" fill="#577ABD"/>
<path d="M44.21 20.6431L43.95 20.4531C44.09 19.9331 43.77 19.5931 43.45 19.2631L43.33 19.5431C43.46 19.7531 43.6 19.7231 43.59 19.4731C43.5642 19.9858 43.6931 20.4945 43.96 20.9331C44.07 20.8531 44.21 20.7931 44.21 20.6431Z" fill="#577ABD"/>
<path d="M44.11 21.1931L43.96 20.9431L44.11 21.1931Z" fill="#577ABD"/>
<path d="M11.49 20.5431L11.62 20.6731L12.33 21.4531C13.1354 22.4615 14.114 23.3182 15.22 23.9831C15.8212 24.2764 16.4664 24.4689 17.13 24.5531C17.8425 24.5845 18.554 24.4723 19.2223 24.2232C19.8906 23.9741 20.5019 23.5932 21.02 23.1031C21.49 22.7531 21.7 22.5831 21.97 22.3431C22.24 22.1031 22.46 21.8831 22.68 21.6631C22.9 21.4431 23.1 21.2131 23.28 20.9931L23.42 20.8331L23.51 20.7331L23.68 20.5531C23.9406 20.2717 24.2404 20.0292 24.57 19.8331C24.6473 19.8039 24.7327 19.8039 24.81 19.8331C24.99 19.8331 25.17 19.9431 25.18 19.9331C25.19 19.9231 25.25 19.9331 25.39 20.2331L25.49 20.5231L25.73 21.2631C25.9104 21.7639 26.1452 22.2434 26.43 22.6931C26.7085 23.0771 27.046 23.4146 27.43 23.6931C28.0559 24.126 28.7824 24.3911 29.54 24.4631C30.2196 24.5089 30.9013 24.41 31.54 24.1731C32.1313 24.0118 32.707 23.7976 33.26 23.5331C33.7788 23.2645 34.2597 22.9283 34.69 22.5331C35.0787 22.1491 35.415 21.7153 35.69 21.2431C35.9267 20.855 36.1212 20.4427 36.27 20.0131C36.06 20.3831 35.86 20.7731 35.6 21.1631C35.3054 21.6093 34.9707 22.0277 34.6 22.4131C34.46 22.5531 34.33 22.6231 34.33 22.5431C34.3368 22.4098 34.3638 22.2783 34.41 22.1531C34.52 21.8131 34.68 21.3531 34.78 21.1531C34.88 20.9531 35.46 21.0131 35.51 20.7731C35.7376 20.3984 35.8936 19.9848 35.97 19.5531C35.97 19.3431 36.36 19.6431 36.37 19.5531C36.62 19.0231 36.37 18.3131 36.72 18.1231C36.9209 17.9737 37.1351 17.8431 37.36 17.7331C37.4713 17.6565 37.5721 17.5657 37.66 17.4631L37.77 17.2031C37.88 16.8816 38.073 16.5949 38.3293 16.3719C38.5857 16.1489 38.8964 15.9976 39.23 15.9331V15.8831C38.7873 15.9166 38.3427 15.9166 37.9 15.8831C38.13 15.8831 38.14 16.0331 37.96 16.1531L37.71 16.0131C37.98 15.6831 38.44 15.3831 38.85 15.7231C38.9302 15.6571 39.0174 15.6001 39.11 15.5531C39.24 15.6331 39.22 15.7931 39.23 15.9231H39.57C39.5474 15.8667 39.5134 15.8157 39.47 15.7731C39.3582 15.6367 39.2227 15.5215 39.07 15.4331C38.9831 15.3865 38.8928 15.3464 38.8 15.3131C38.1767 15.4163 37.5929 15.6858 37.11 16.0931C36.6486 16.4582 36.2234 16.8668 35.84 17.3131C35.84 17.4431 35.9 17.5531 35.78 17.6131C35.6738 17.6235 35.5712 17.6577 35.48 17.7131L35.16 18.0931L35.09 18.2631C35.09 18.3731 35.15 18.3931 35.24 18.3931C35.3193 18.3787 35.4006 18.3787 35.48 18.3931H35.24C35.1429 18.4199 35.0515 18.464 34.97 18.5231C34.9441 18.5851 34.914 18.6452 34.88 18.7031L34.94 18.5631L35.03 18.3531V18.3031V18.2131L34.31 19.0831L34.2 19.3031C34.1 19.5531 33.98 19.8031 33.7 19.7831L33.56 19.9231H33.62H33.54C33.35 20.1131 33.15 20.3031 32.94 20.4831C32.5841 20.7952 32.1828 21.0514 31.75 21.2431C31.3761 21.3946 30.9667 21.4362 30.57 21.3631C30.181 21.2695 29.8312 21.0562 29.57 20.7531C29.2863 20.3821 29.0914 19.9511 29 19.4931C28.8298 18.7681 28.5096 18.0868 28.06 17.4931C27.525 16.8713 26.835 16.4021 26.06 16.1331C25.2489 15.8282 24.3674 15.7622 23.52 15.9431C22.2882 16.2527 21.1708 16.9085 20.3 17.8331L19.74 18.3931C19.57 18.5631 19.39 18.7231 19.22 18.8731C19.05 19.0231 18.88 19.1631 18.71 19.2931C18.578 19.4077 18.4297 19.502 18.27 19.5731C18.0799 19.6931 17.8598 19.7567 17.635 19.7567C17.4103 19.7567 17.1901 19.6931 17 19.5731C16.73 19.3531 16.73 19.3231 16.18 18.5731C15.95 18.2531 15.71 17.8931 15.41 17.5131C15.2403 17.279 15.0566 17.0552 14.86 16.8431C14.6247 16.5945 14.3742 16.3607 14.11 16.1431C13.3488 15.5596 12.4492 15.1838 11.4991 15.0523C10.549 14.9208 9.58106 15.0383 8.69 15.3931C7.27018 16.0088 6.09771 17.0827 5.35999 18.4431C4.82066 19.4019 4.36563 20.4056 4 21.4431C4 23.6331 6.3 23.4431 6.44 23.3631C6.80769 23.3095 7.15828 23.1726 7.46503 22.9629C7.77177 22.7532 8.0266 22.4763 8.21002 22.1531C8.59684 21.3933 9.19841 20.7639 9.94 20.3431C9.32 20.7231 9.20003 20.3431 9.53003 19.8431C9.69986 19.559 9.96059 19.3406 10.27 19.2231C10.4139 19.1738 10.5694 19.1694 10.7158 19.2104C10.8623 19.2515 10.9928 19.3361 11.09 19.4531C11.3381 19.7274 11.4768 20.0833 11.48 20.4531L11.49 20.5431ZM32.42 21.3031C32.3353 21.4214 32.2105 21.5048 32.0688 21.5379C31.9272 21.571 31.7784 21.5515 31.65 21.4831C31.87 21.1531 32.11 21.2331 32.42 21.3031V21.3031Z" fill="#577ABD"/>
<path d="M36.62 24.8631C36.71 24.8631 36.62 24.7331 36.62 24.6331L36.41 24.923C36.4737 24.8853 36.546 24.8646 36.62 24.8631V24.8631Z" fill="#577ABD"/>
<path d="M36.11 25.4832C36.0641 25.5126 36.0258 25.5523 35.998 25.5992C35.9703 25.6461 35.9538 25.6988 35.95 25.7532C36.0253 25.6781 36.0803 25.5852 36.11 25.4832V25.4832Z" fill="#577ABD"/>
<path d="M36.15 25.2931V25.4831C36.2129 25.4422 36.2852 25.4182 36.36 25.4131C36.24 25.3631 36.16 25.3631 36.15 25.2931Z" fill="#577ABD"/>
<path d="M36.32 25.4131C36.39 25.4131 36.48 25.4131 36.52 25.4131C36.4537 25.4031 36.3863 25.4031 36.32 25.4131V25.4131Z" fill="#577ABD"/>
<path d="M37.64 26.4831C37.64 26.5731 37.26 26.2931 37.27 26.4831C37.263 26.7976 37.1915 27.1073 37.06 27.3931C37.06 27.5631 36.51 27.3931 36.52 27.5831C36.44 27.9031 36.37 28.9531 36.68 28.5831C37.0213 28.0566 37.3222 27.5051 37.58 26.9331C37.72 26.4031 37.78 25.8731 37.9 25.3531C37.9636 25.2294 38.0482 25.1178 38.15 25.0231L37.68 25.3831C37.43 25.4731 37.78 26.0731 37.64 26.4831Z" fill="#577ABD"/>
<path d="M38.21 22.7532C37.77 22.8332 37.74 23.1532 37.72 23.4732H37.99C38.05 23.3132 37.99 23.2332 37.78 23.3132C37.9509 23.2582 38.1063 23.1634 38.2333 23.0364C38.3602 22.9095 38.4551 22.7541 38.51 22.5832C38.39 22.5832 38.26 22.4632 38.16 22.5132L38.21 22.7532Z" fill="#577ABD"/>
<path d="M35.57 27.0532C35.0962 27.6738 34.5256 28.214 33.88 28.6532C33.88 28.7632 33.88 28.8732 33.82 28.8832C33.7446 28.8493 33.6627 28.8322 33.58 28.8332L33.3 28.9832L33.22 29.0732C33.22 29.1432 33.22 29.2032 33.32 29.2432L33.51 29.3332L33.32 29.2432C33.2479 29.2245 33.1722 29.2245 33.1 29.2432H33.05L33.15 29.1232V29.0632C32.9311 29.1688 32.7036 29.2558 32.47 29.3232L32.35 29.4132C32.21 29.5432 32.05 29.6532 31.89 29.4132H31.77H31.71C31.5368 29.4231 31.3632 29.4231 31.19 29.4132C30.8514 29.4182 30.5141 29.371 30.19 29.2732C29.1905 28.9133 28.3368 28.2353 27.76 27.3432L26.68 25.8532C26.1889 25.1723 25.575 24.589 24.87 24.1332C24.4736 23.8564 24.014 23.6838 23.5334 23.6314C23.0528 23.5789 22.5667 23.6483 22.12 23.8332C21.2868 24.2366 20.5344 24.789 19.9 25.4632C19.4128 25.8989 18.9551 26.3666 18.53 26.8632C18.2482 27.2103 17.9102 27.5078 17.53 27.7432C17.2384 27.9453 16.8816 28.0309 16.53 27.9832C16.3899 27.9305 16.2661 27.8417 16.1713 27.7258C16.0764 27.6099 16.0139 27.471 15.99 27.3232C15.91 27.0732 15.68 26.9032 15.33 26.6132C14.9789 26.3193 14.645 26.0055 14.33 25.6732C12.99 25.2532 11.71 26.9532 11.67 27.0932C11.4823 27.3408 11.3734 27.639 11.3574 27.9493C11.3413 28.2596 11.4189 28.5675 11.58 28.8332C12.0148 29.4745 12.4089 30.1425 12.76 30.8332C12.39 30.1632 12.76 30.1332 13.26 30.4032C13.9558 30.8415 14.5797 31.3846 15.11 32.0132C15.3557 32.3042 15.662 32.5383 16.0074 32.6989C16.3528 32.8595 16.729 32.9429 17.11 32.9432C17.519 32.9498 17.9268 32.8958 18.32 32.7832C18.7027 32.6627 19.0714 32.5018 19.42 32.3032C19.74 32.1032 20.03 31.8732 20.33 31.6532L20.82 31.2132L21.2 30.7832C21.6195 30.3061 22.0777 29.8646 22.57 29.4632C22.9317 29.1019 23.266 28.7142 23.57 28.3032C23.71 28.3532 23.75 28.4132 23.76 28.4332C23.77 28.4532 23.76 28.3632 23.87 28.3432C23.87 28.3432 23.87 28.3432 23.98 28.4332C24.09 28.5232 24.33 28.8032 24.52 29.0232C24.9 29.4732 25.32 30.0232 25.91 30.6432C26.818 31.417 27.9771 31.833 29.17 31.8132C29.8834 32.0217 30.618 32.1492 31.36 32.1932C32.2061 32.1187 33.004 31.7672 33.63 31.1932C32.9598 31.6357 32.2087 31.9416 31.42 32.0932C30.77 32.1632 31.84 31.4632 32.13 31.2232C32.26 31.0932 32.64 31.5232 32.78 31.3732C33.1165 31.2083 33.4056 30.9605 33.62 30.6532C33.71 30.4932 33.92 30.9232 33.96 30.8432C34.37 30.4932 34.33 29.7732 34.63 29.7032L35.25 29.4832C35.3678 29.433 35.4709 29.3539 35.55 29.2532L35.65 29.0032C35.87 28.3832 36.1 27.7332 36.29 27.1532C36.2057 27.3163 36.082 27.4558 35.93 27.5588C35.7781 27.6619 35.6027 27.7252 35.42 27.7432C35.6 27.7432 35.69 27.8032 35.6 27.9532L35.33 27.8932C35.43 27.5732 35.51 27.2732 35.96 27.2732V27.0232C36.07 27.0232 36.19 27.0832 36.3 27.1532C36.3399 27.095 36.3704 27.0309 36.39 26.9632C36.1139 26.9578 35.8383 26.988 35.57 27.0532V27.0532ZM30.13 29.4432C30.37 29.2832 30.49 29.5032 30.65 29.7432C30.42 29.8232 30.19 29.7032 30.08 29.4432H30.13Z" fill="#577ABD"/>
</svg>
